<svg width="1260" height="58" viewBox="0 0 1260 58" fill="none" xmlns="http://www.w3.org/2000/svg">
<rect width="260" height="57.6488" rx="3.86905" fill="#F5DC22"/>
<path d="M60.9917 21.4553C62.4338 21.4553 63.699 21.7371 64.7871 22.3009C65.8884 22.8646 66.734 23.6709 67.324 24.7197C67.9271 25.7555 68.2286 26.9616 68.2286 28.3382C68.2286 29.7148 67.9271 30.9209 67.324 31.9566C66.734 32.9792 65.8884 33.7724 64.7871 34.3361C63.699 34.8999 62.4338 35.1818 60.9917 35.1818H56.1933V21.4553H60.9917ZM60.8934 32.8416C62.3355 32.8416 63.4499 32.4483 64.2365 31.6616C65.0231 30.875 65.4164 29.7672 65.4164 28.3382C65.4164 26.9092 65.0231 25.7948 64.2365 24.9951C63.4499 24.1822 62.3355 23.7758 60.8934 23.7758H58.9465V32.8416H60.8934ZM75.1272 35.3588C74.0784 35.3588 73.1344 35.1293 72.2954 34.6705C71.4563 34.1985 70.7942 33.5364 70.3091 32.6843C69.8372 31.8321 69.6012 30.8488 69.6012 29.7344C69.6012 28.6201 69.8437 27.6368 70.3288 26.7846C70.827 25.9324 71.5022 25.2769 72.3543 24.8181C73.2065 24.3461 74.157 24.1101 75.2058 24.1101C76.2547 24.1101 77.2052 24.3461 78.0573 24.8181C78.9095 25.2769 79.5781 25.9324 80.0632 26.7846C80.5614 27.6368 80.8105 28.6201 80.8105 29.7344C80.8105 30.8488 80.5548 31.8321 80.0435 32.6843C79.5454 33.5364 78.8636 34.1985 77.9983 34.6705C77.1462 35.1293 76.1891 35.3588 75.1272 35.3588ZM75.1272 32.9596C75.6254 32.9596 76.0908 32.8416 76.5234 32.6056C76.9692 32.3565 77.3232 31.9894 77.5854 31.5043C77.8476 31.0192 77.9787 30.4293 77.9787 29.7344C77.9787 28.6987 77.7034 27.9055 77.1527 27.3549C76.6152 26.7912 75.9531 26.5093 75.1665 26.5093C74.3799 26.5093 73.7178 26.7912 73.1803 27.3549C72.6559 27.9055 72.3937 28.6987 72.3937 29.7344C72.3937 30.7701 72.6493 31.5699 73.1606 32.1336C73.685 32.6843 74.3406 32.9596 75.1272 32.9596ZM97.9331 24.2871L94.7473 35.1818H91.7778L89.7916 27.5712L87.8054 35.1818H84.8163L81.6108 24.2871H84.4033L86.3305 32.5859L88.415 24.2871H91.3255L93.3707 32.5663L95.2979 24.2871H97.9331ZM105.46 24.1298C106.758 24.1298 107.807 24.5428 108.607 25.3687C109.406 26.1815 109.806 27.3221 109.806 28.7905V35.1818H107.053V29.1641C107.053 28.2989 106.837 27.6368 106.404 27.1779C105.971 26.706 105.381 26.47 104.634 26.47C103.874 26.47 103.271 26.706 102.825 27.1779C102.392 27.6368 102.176 28.2989 102.176 29.1641V35.1818H99.4228V24.2871H102.176V25.644C102.543 25.172 103.008 24.805 103.572 24.5428C104.149 24.2674 104.778 24.1298 105.46 24.1298ZM115.177 20.6293V35.1818H112.424V20.6293H115.177ZM122.735 35.3588C121.686 35.3588 120.742 35.1293 119.903 34.6705C119.064 34.1985 118.402 33.5364 117.917 32.6843C117.445 31.8321 117.209 30.8488 117.209 29.7344C117.209 28.6201 117.452 27.6368 117.937 26.7846C118.435 25.9324 119.11 25.2769 119.962 24.8181C120.815 24.3461 121.765 24.1101 122.814 24.1101C123.863 24.1101 124.813 24.3461 125.665 24.8181C126.518 25.2769 127.186 25.9324 127.671 26.7846C128.169 27.6368 128.419 28.6201 128.419 29.7344C128.419 30.8488 128.163 31.8321 127.652 32.6843C127.153 33.5364 126.472 34.1985 125.606 34.6705C124.754 35.1293 123.797 35.3588 122.735 35.3588ZM122.735 32.9596C123.233 32.9596 123.699 32.8416 124.131 32.6056C124.577 32.3565 124.931 31.9894 125.193 31.5043C125.456 31.0192 125.587 30.4293 125.587 29.7344C125.587 28.6987 125.311 27.9055 124.761 27.3549C124.223 26.7912 123.561 26.5093 122.775 26.5093C121.988 26.5093 121.326 26.7912 120.788 27.3549C120.264 27.9055 120.002 28.6987 120.002 29.7344C120.002 30.7701 120.257 31.5699 120.769 32.1336C121.293 32.6843 121.949 32.9596 122.735 32.9596ZM129.73 29.6951C129.73 28.5938 129.946 27.6171 130.379 26.7649C130.825 25.9128 131.421 25.2573 132.169 24.7984C132.929 24.3395 133.775 24.1101 134.706 24.1101C135.518 24.1101 136.226 24.274 136.829 24.6017C137.446 24.9295 137.937 25.3425 138.304 25.8407V24.2871H141.077V35.1818H138.304V33.5889C137.95 34.1002 137.459 34.5262 136.829 34.8671C136.213 35.1949 135.499 35.3588 134.686 35.3588C133.768 35.3588 132.929 35.1228 132.169 34.6508C131.421 34.1788 130.825 33.5168 130.379 32.6646C129.946 31.7993 129.73 30.8095 129.73 29.6951ZM138.304 29.7344C138.304 29.0658 138.173 28.4955 137.911 28.0235C137.649 27.5385 137.295 27.1714 136.849 26.9223C136.403 26.6601 135.925 26.529 135.413 26.529C134.902 26.529 134.43 26.6535 133.998 26.9026C133.565 27.1517 133.211 27.5188 132.936 28.0039C132.673 28.4758 132.542 29.0396 132.542 29.6951C132.542 30.3506 132.673 30.9275 132.936 31.4257C133.211 31.9107 133.565 32.2844 133.998 32.5466C134.443 32.8088 134.915 32.9399 135.413 32.9399C135.925 32.9399 136.403 32.8154 136.849 32.5663C137.295 32.3041 137.649 31.937 137.911 31.465C138.173 30.9799 138.304 30.4031 138.304 29.7344ZM143.058 29.6951C143.058 28.5938 143.274 27.6171 143.707 26.7649C144.153 25.9128 144.756 25.2573 145.516 24.7984C146.277 24.3395 147.122 24.1101 148.053 24.1101C148.761 24.1101 149.436 24.2674 150.079 24.5821C150.721 24.8836 151.232 25.29 151.613 25.8013V20.6293H154.405V35.1818H151.613V33.5692C151.272 34.1067 150.793 34.5394 150.177 34.8671C149.561 35.1949 148.846 35.3588 148.033 35.3588C147.116 35.3588 146.277 35.1228 145.516 34.6508C144.756 34.1788 144.153 33.5168 143.707 32.6646C143.274 31.7993 143.058 30.8095 143.058 29.6951ZM151.632 29.7344C151.632 29.0658 151.501 28.4955 151.239 28.0235C150.977 27.5385 150.623 27.1714 150.177 26.9223C149.731 26.6601 149.253 26.529 148.741 26.529C148.23 26.529 147.758 26.6535 147.326 26.9026C146.893 27.1517 146.539 27.5188 146.264 28.0039C146.001 28.4758 145.87 29.0396 145.87 29.6951C145.87 30.3506 146.001 30.9275 146.264 31.4257C146.539 31.9107 146.893 32.2844 147.326 32.5466C147.771 32.8088 148.243 32.9399 148.741 32.9399C149.253 32.9399 149.731 32.8154 150.177 32.5663C150.623 32.3041 150.977 31.937 151.239 31.465C151.501 30.9799 151.632 30.4031 151.632 29.7344ZM170.197 32.5663H164.73L163.825 35.1818H160.934L165.87 21.4356H169.076L174.012 35.1818H171.101L170.197 32.5663ZM169.449 30.3637L167.463 24.6214L165.477 30.3637H169.449ZM178.61 25.9783C178.964 25.4015 179.423 24.9492 179.987 24.6214C180.563 24.2937 181.219 24.1298 181.953 24.1298V27.0206H181.226C180.36 27.0206 179.705 27.2238 179.259 27.6302C178.826 28.0366 178.61 28.7446 178.61 29.7541V35.1818H175.857V24.2871H178.61V25.9783ZM187.013 26.5486V31.819C187.013 32.1861 187.098 32.4548 187.269 32.6253C187.452 32.7826 187.754 32.8612 188.173 32.8612H189.452V35.1818H187.721C185.4 35.1818 184.24 34.0543 184.24 31.7993V26.5486H182.942V24.2871H184.24V21.5929H187.013V24.2871H189.452V26.5486H187.013ZM192.828 22.9892C192.343 22.9892 191.936 22.8384 191.609 22.5369C191.294 22.2222 191.137 21.8355 191.137 21.3766C191.137 20.9178 191.294 20.5376 191.609 20.236C191.936 19.9214 192.343 19.764 192.828 19.764C193.313 19.764 193.713 19.9214 194.028 20.236C194.355 20.5376 194.519 20.9178 194.519 21.3766C194.519 21.8355 194.355 22.2222 194.028 22.5369C193.713 22.8384 193.313 22.9892 192.828 22.9892ZM194.185 24.2871V35.1818H191.432V24.2871H194.185ZM201.9 26.5486H199.993V35.1818H197.2V26.5486H195.961V24.2871H197.2V23.7365C197.2 22.3992 197.58 21.4159 198.341 20.7867C199.101 20.1574 200.248 19.8624 201.782 19.9017V22.2222C201.113 22.2091 200.648 22.3206 200.386 22.5565C200.124 22.7925 199.993 23.2186 199.993 23.8348V24.2871H201.9V26.5486ZM202.976 29.6951C202.976 28.5938 203.193 27.6171 203.625 26.7649C204.071 25.9128 204.668 25.2573 205.415 24.7984C206.175 24.3395 207.021 24.1101 207.952 24.1101C208.764 24.1101 209.472 24.274 210.076 24.6017C210.692 24.9295 211.183 25.3425 211.55 25.8407V24.2871H214.323V35.1818H211.55V33.5889C211.196 34.1002 210.705 34.5262 210.076 34.8671C209.459 35.1949 208.745 35.3588 207.932 35.3588C207.014 35.3588 206.175 35.1228 205.415 34.6508C204.668 34.1788 204.071 33.5168 203.625 32.6646C203.193 31.7993 202.976 30.8095 202.976 29.6951ZM211.55 29.7344C211.55 29.0658 211.419 28.4955 211.157 28.0235C210.895 27.5385 210.541 27.1714 210.095 26.9223C209.649 26.6601 209.171 26.529 208.66 26.529C208.148 26.529 207.676 26.6535 207.244 26.9026C206.811 27.1517 206.457 27.5188 206.182 28.0039C205.92 28.4758 205.788 29.0396 205.788 29.6951C205.788 30.3506 205.92 30.9275 206.182 31.4257C206.457 31.9107 206.811 32.2844 207.244 32.5466C207.689 32.8088 208.161 32.9399 208.66 32.9399C209.171 32.9399 209.649 32.8154 210.095 32.5663C210.541 32.3041 210.895 31.937 211.157 31.465C211.419 30.9799 211.55 30.4031 211.55 29.7344ZM216.304 29.7344C216.304 28.6069 216.534 27.6237 216.993 26.7846C217.451 25.9324 218.087 25.2769 218.9 24.8181C219.713 24.3461 220.644 24.1101 221.693 24.1101C223.043 24.1101 224.157 24.451 225.036 25.1327C225.927 25.8013 226.524 26.7453 226.825 27.9645H223.856C223.698 27.4926 223.43 27.1255 223.049 26.8633C222.682 26.588 222.224 26.4503 221.673 26.4503C220.886 26.4503 220.264 26.7387 219.805 27.3156C219.346 27.8793 219.116 28.6856 219.116 29.7344C219.116 30.7701 219.346 31.5764 219.805 32.1533C220.264 32.717 220.886 32.9989 221.673 32.9989C222.787 32.9989 223.515 32.5007 223.856 31.5043H226.825C226.524 32.6843 225.927 33.6216 225.036 34.3165C224.144 35.0113 223.03 35.3588 221.693 35.3588C220.644 35.3588 219.713 35.1293 218.9 34.6705C218.087 34.1985 217.451 33.543 216.993 32.7039C216.534 31.8517 216.304 30.8619 216.304 29.7344ZM232.048 26.5486V31.819C232.048 32.1861 232.133 32.4548 232.303 32.6253C232.487 32.7826 232.788 32.8612 233.208 32.8612H234.486V35.1818H232.756C230.435 35.1818 229.275 34.0543 229.275 31.7993V26.5486H227.977V24.2871H229.275V21.5929H232.048V24.2871H234.486V26.5486H232.048ZM240.635 35.3588C239.744 35.3588 238.944 35.2014 238.236 34.8868C237.528 34.559 236.965 34.1198 236.545 33.5692C236.139 33.0186 235.916 32.4089 235.876 31.7403H238.649C238.702 32.1598 238.905 32.5073 239.259 32.7826C239.626 33.0579 240.078 33.1956 240.616 33.1956C241.14 33.1956 241.547 33.0907 241.835 32.8809C242.137 32.6711 242.287 32.4024 242.287 32.0746C242.287 31.7206 242.104 31.4584 241.737 31.288C241.383 31.1045 240.812 30.9078 240.026 30.698C239.213 30.5014 238.544 30.2982 238.02 30.0884C237.509 29.8786 237.063 29.5574 236.683 29.1248C236.316 28.6922 236.132 28.1088 236.132 27.3746C236.132 26.7715 236.303 26.2209 236.643 25.7227C236.997 25.2245 237.496 24.8312 238.138 24.5428C238.793 24.2543 239.56 24.1101 240.439 24.1101C241.737 24.1101 242.772 24.4379 243.546 25.0934C244.319 25.7358 244.746 26.6076 244.824 27.7089H242.189C242.15 27.2763 241.966 26.9354 241.638 26.6863C241.324 26.4241 240.898 26.293 240.36 26.293C239.862 26.293 239.475 26.3847 239.2 26.5683C238.938 26.7518 238.807 27.0075 238.807 27.3352C238.807 27.7023 238.99 27.9842 239.357 28.1809C239.724 28.3644 240.295 28.5545 241.068 28.7512C241.855 28.9478 242.504 29.151 243.015 29.3608C243.526 29.5706 243.965 29.8983 244.333 30.3441C244.713 30.7767 244.909 31.3536 244.923 32.0746C244.923 32.7039 244.746 33.2677 244.392 33.7658C244.051 34.264 243.553 34.6574 242.897 34.9458C242.255 35.2211 241.501 35.3588 240.635 35.3588Z" fill="black"/>
<path d="M35.782 36.6727C35.782 36.4314 35.6939 36.2226 35.5176 36.0463C35.3412 35.87 35.1324 35.7818 34.8911 35.7818C34.6499 35.7818 34.441 35.87 34.2647 36.0463C34.0884 36.2226 34.0002 36.4314 34.0002 36.6727C34.0002 36.914 34.0884 37.1228 34.2647 37.2991C34.441 37.4755 34.6499 37.5636 34.8911 37.5636C35.1324 37.5636 35.3412 37.4755 35.5176 37.2991C35.6939 37.1228 35.782 36.914 35.782 36.6727ZM39.3457 36.6727C39.3457 36.4314 39.2575 36.2226 39.0812 36.0463C38.9049 35.87 38.6961 35.7818 38.4548 35.7818C38.2135 35.7818 38.0047 35.87 37.8284 36.0463C37.652 36.2226 37.5639 36.4314 37.5639 36.6727C37.5639 36.914 37.652 37.1228 37.8284 37.2991C38.0047 37.4755 38.2135 37.5636 38.4548 37.5636C38.6961 37.5636 38.9049 37.4755 39.0812 37.2991C39.2575 37.1228 39.3457 36.914 39.3457 36.6727ZM41.1275 33.5545V38.0091C41.1275 38.3803 40.9976 38.6958 40.7377 38.9557C40.4779 39.2155 40.1624 39.3454 39.7911 39.3454H19.3002C18.929 39.3454 18.6135 39.2155 18.3536 38.9557C18.0938 38.6958 17.9639 38.3803 17.9639 38.0091V33.5545C17.9639 33.1833 18.0938 32.8678 18.3536 32.6079C18.6135 32.3481 18.929 32.2182 19.3002 32.2182H25.7732L27.6525 34.1113C28.1908 34.631 28.8218 34.8909 29.5457 34.8909C30.2695 34.8909 30.9006 34.631 31.4389 34.1113L33.3321 32.2182H39.7911C40.1624 32.2182 40.4779 32.3481 40.7377 32.6079C40.9976 32.8678 41.1275 33.1833 41.1275 33.5545ZM36.6034 25.6338C36.7611 26.0143 36.6962 26.3391 36.4085 26.6082L30.1721 32.8446C30.0051 33.0209 29.7963 33.1091 29.5457 33.1091C29.2951 33.1091 29.0863 33.0209 28.9193 32.8446L22.6829 26.6082C22.3952 26.3391 22.3303 26.0143 22.488 25.6338C22.6458 25.2719 22.9195 25.0909 23.3093 25.0909H26.873V18.8545C26.873 18.6132 26.9611 18.4044 27.1374 18.2281C27.3138 18.0518 27.5226 17.9636 27.7639 17.9636H31.3275C31.5688 17.9636 31.7776 18.0518 31.9539 18.2281C32.1303 18.4044 32.2184 18.6132 32.2184 18.8545V25.0909H35.782C36.1718 25.0909 36.4456 25.2719 36.6034 25.6338Z" fill="black"/>
<rect x="310" width="260" height="57.6488" rx="3.86905" fill="#22CFF5"/>
<path d="M372.525 28.1171C372.525 26.7667 372.826 25.5606 373.429 24.4986C374.046 23.4236 374.878 22.5911 375.927 22.0011C376.989 21.3981 378.175 21.0965 379.486 21.0965C381.02 21.0965 382.364 21.4898 383.518 22.2765C384.671 23.0631 385.478 24.1512 385.937 25.5409H382.77C382.456 24.8854 382.01 24.3938 381.433 24.066C380.869 23.7382 380.214 23.5744 379.467 23.5744C378.667 23.5744 377.952 23.7645 377.323 24.1447C376.707 24.5118 376.222 25.0362 375.868 25.7179C375.527 26.3996 375.357 27.1994 375.357 28.1171C375.357 29.0217 375.527 29.8214 375.868 30.5163C376.222 31.198 376.707 31.729 377.323 32.1092C377.952 32.4763 378.667 32.6598 379.467 32.6598C380.214 32.6598 380.869 32.4959 381.433 32.1682C382.01 31.8273 382.456 31.3291 382.77 30.6736H385.937C385.478 32.0764 384.671 33.1711 383.518 33.9577C382.377 34.7312 381.033 35.118 379.486 35.118C378.175 35.118 376.989 34.823 375.927 34.233C374.878 33.63 374.046 32.7975 373.429 31.7355C372.826 30.6736 372.525 29.4675 372.525 28.1171ZM393.126 35.177C392.077 35.177 391.133 34.9476 390.294 34.4887C389.455 34.0167 388.793 33.3547 388.308 32.5025C387.836 31.6503 387.6 30.667 387.6 29.5527C387.6 28.4383 387.842 27.455 388.327 26.6029C388.826 25.7507 389.501 25.0952 390.353 24.6363C391.205 24.1643 392.156 23.9283 393.204 23.9283C394.253 23.9283 395.204 24.1643 396.056 24.6363C396.908 25.0952 397.577 25.7507 398.062 26.6029C398.56 27.455 398.809 28.4383 398.809 29.5527C398.809 30.667 398.553 31.6503 398.042 32.5025C397.544 33.3547 396.862 34.0167 395.997 34.4887C395.145 34.9476 394.188 35.177 393.126 35.177ZM393.126 32.7778C393.624 32.7778 394.089 32.6598 394.522 32.4238C394.968 32.1747 395.322 31.8076 395.584 31.3226C395.846 30.8375 395.977 30.2475 395.977 29.5527C395.977 28.517 395.702 27.7238 395.151 27.1731C394.614 26.6094 393.952 26.3275 393.165 26.3275C392.379 26.3275 391.716 26.6094 391.179 27.1731C390.655 27.7238 390.392 28.517 390.392 29.5527C390.392 30.5884 390.648 31.3881 391.159 31.9519C391.684 32.5025 392.339 32.7778 393.126 32.7778ZM403.582 25.6786C403.936 25.1804 404.421 24.7674 405.037 24.4397C405.666 24.0988 406.381 23.9283 407.181 23.9283C408.111 23.9283 408.951 24.1578 409.698 24.6166C410.458 25.0755 411.055 25.731 411.487 26.5832C411.933 27.4222 412.156 28.399 412.156 29.5133C412.156 30.6277 411.933 31.6175 411.487 32.4828C411.055 33.335 410.458 33.9971 409.698 34.469C408.951 34.941 408.111 35.177 407.181 35.177C406.381 35.177 405.673 35.0131 405.057 34.6854C404.454 34.3576 403.962 33.9446 403.582 33.4464V40.1917H400.829V24.1053H403.582V25.6786ZM409.344 29.5133C409.344 28.8578 409.206 28.2941 408.931 27.8221C408.669 27.337 408.315 26.9699 407.869 26.7208C407.436 26.4717 406.964 26.3472 406.453 26.3472C405.955 26.3472 405.483 26.4783 405.037 26.7405C404.604 26.9896 404.25 27.3567 403.975 27.8418C403.713 28.3269 403.582 28.8972 403.582 29.5527C403.582 30.2082 403.713 30.7785 403.975 31.2636C404.25 31.7486 404.604 32.1223 405.037 32.3845C405.483 32.6336 405.955 32.7581 406.453 32.7581C406.964 32.7581 407.436 32.627 407.869 32.3648C408.315 32.1026 408.669 31.729 408.931 31.2439C409.206 30.7588 409.344 30.182 409.344 29.5133ZM424.579 24.1053L417.834 40.1523H414.904L417.264 34.7247L412.898 24.1053H415.986L418.798 31.7159L421.649 24.1053H424.579ZM433.955 26.3669V31.6372C433.955 32.0043 434.04 32.2731 434.21 32.4435C434.394 32.6008 434.696 32.6795 435.115 32.6795H436.393V35H434.663C432.342 35 431.182 33.8725 431.182 31.6175V26.3669H429.884V24.1053H431.182V21.4112H433.955V24.1053H436.393V26.3669H433.955ZM443.211 35.177C442.162 35.177 441.218 34.9476 440.379 34.4887C439.54 34.0167 438.878 33.3547 438.393 32.5025C437.921 31.6503 437.685 30.667 437.685 29.5527C437.685 28.4383 437.928 27.455 438.413 26.6029C438.911 25.7507 439.586 25.0952 440.438 24.6363C441.291 24.1643 442.241 23.9283 443.29 23.9283C444.339 23.9283 445.289 24.1643 446.141 24.6363C446.994 25.0952 447.662 25.7507 448.147 26.6029C448.645 27.455 448.895 28.4383 448.895 29.5527C448.895 30.667 448.639 31.6503 448.128 32.5025C447.629 33.3547 446.948 34.0167 446.082 34.4887C445.23 34.9476 444.273 35.177 443.211 35.177ZM443.211 32.7778C443.709 32.7778 444.175 32.6598 444.608 32.4238C445.053 32.1747 445.407 31.8076 445.669 31.3226C445.932 30.8375 446.063 30.2475 446.063 29.5527C446.063 28.517 445.787 27.7238 445.237 27.1731C444.699 26.6094 444.037 26.3275 443.251 26.3275C442.464 26.3275 441.802 26.6094 441.264 27.1731C440.74 27.7238 440.478 28.517 440.478 29.5527C440.478 30.5884 440.733 31.3881 441.245 31.9519C441.769 32.5025 442.425 32.7778 443.211 32.7778ZM460.595 26.3669H458.688V35H455.895V26.3669H454.656V24.1053H455.895V23.5547C455.895 22.2175 456.275 21.2342 457.036 20.6049C457.796 19.9756 458.943 19.6806 460.477 19.7199V22.0405C459.808 22.0274 459.343 22.1388 459.081 22.3748C458.819 22.6108 458.688 23.0368 458.688 23.653V24.1053H460.595V26.3669ZM465.132 25.7966C465.486 25.2197 465.945 24.7674 466.509 24.4397C467.086 24.1119 467.741 23.948 468.476 23.948V26.8388H467.748C466.883 26.8388 466.227 27.042 465.781 27.4485C465.349 27.8549 465.132 28.5628 465.132 29.5723V35H462.379V24.1053H465.132V25.7966ZM475.168 35.177C474.119 35.177 473.175 34.9476 472.336 34.4887C471.497 34.0167 470.835 33.3547 470.35 32.5025C469.878 31.6503 469.642 30.667 469.642 29.5527C469.642 28.4383 469.884 27.455 470.369 26.6029C470.867 25.7507 471.543 25.0952 472.395 24.6363C473.247 24.1643 474.197 23.9283 475.246 23.9283C476.295 23.9283 477.246 24.1643 478.098 24.6363C478.95 25.0952 479.619 25.7507 480.104 26.6029C480.602 27.455 480.851 28.4383 480.851 29.5527C480.851 30.667 480.595 31.6503 480.084 32.5025C479.586 33.3547 478.904 34.0167 478.039 34.4887C477.187 34.9476 476.23 35.177 475.168 35.177ZM475.168 32.7778C475.666 32.7778 476.131 32.6598 476.564 32.4238C477.01 32.1747 477.364 31.8076 477.626 31.3226C477.888 30.8375 478.019 30.2475 478.019 29.5527C478.019 28.517 477.744 27.7238 477.193 27.1731C476.656 26.6094 475.994 26.3275 475.207 26.3275C474.42 26.3275 473.758 26.6094 473.221 27.1731C472.696 27.7238 472.434 28.517 472.434 29.5527C472.434 30.5884 472.69 31.3881 473.201 31.9519C473.725 32.5025 474.381 32.7778 475.168 32.7778ZM488.908 23.948C490.206 23.948 491.255 24.361 492.054 25.1869C492.854 25.9998 493.254 27.1404 493.254 28.6087V35H490.501V28.9824C490.501 28.1171 490.284 27.455 489.852 26.9962C489.419 26.5242 488.829 26.2882 488.082 26.2882C487.321 26.2882 486.718 26.5242 486.273 26.9962C485.84 27.455 485.624 28.1171 485.624 28.9824V35H482.87V24.1053H485.624V25.4623C485.991 24.9903 486.456 24.6232 487.02 24.361C487.597 24.0857 488.226 23.948 488.908 23.948ZM499.077 26.3669V31.6372C499.077 32.0043 499.163 32.2731 499.333 32.4435C499.517 32.6008 499.818 32.6795 500.238 32.6795H501.516V35H499.785C497.465 35 496.305 33.8725 496.305 31.6175V26.3669H495.007V24.1053H496.305V21.4112H499.077V24.1053H501.516V26.3669H499.077ZM513.624 29.3167C513.624 29.71 513.598 30.064 513.545 30.3786H505.581C505.646 31.1652 505.922 31.7814 506.407 32.2272C506.892 32.6729 507.488 32.8958 508.196 32.8958C509.219 32.8958 509.946 32.4566 510.379 31.5782H513.349C513.034 32.627 512.431 33.4923 511.539 34.1741C510.648 34.8427 509.553 35.177 508.255 35.177C507.206 35.177 506.262 34.9476 505.423 34.4887C504.597 34.0167 503.948 33.3547 503.477 32.5025C503.018 31.6503 502.788 30.667 502.788 29.5527C502.788 28.4252 503.018 27.4354 503.477 26.5832C503.935 25.731 504.578 25.0755 505.404 24.6166C506.23 24.1578 507.18 23.9283 508.255 23.9283C509.291 23.9283 510.215 24.1512 511.028 24.597C511.854 25.0427 512.49 25.6786 512.936 26.5045C513.394 27.3174 513.624 28.2547 513.624 29.3167ZM510.772 28.5301C510.759 27.8221 510.504 27.2584 510.005 26.8388C509.507 26.4062 508.898 26.1899 508.177 26.1899C507.495 26.1899 506.918 26.3996 506.446 26.8192C505.987 27.2256 505.705 27.7959 505.6 28.5301H510.772ZM521.671 23.948C522.969 23.948 524.017 24.361 524.817 25.1869C525.617 25.9998 526.017 27.1404 526.017 28.6087V35H523.264V28.9824C523.264 28.1171 523.047 27.455 522.615 26.9962C522.182 26.5242 521.592 26.2882 520.845 26.2882C520.084 26.2882 519.481 26.5242 519.036 26.9962C518.603 27.455 518.387 28.1171 518.387 28.9824V35H515.633V24.1053H518.387V25.4623C518.754 24.9903 519.219 24.6232 519.783 24.361C520.36 24.0857 520.989 23.948 521.671 23.948ZM527.927 29.5133C527.927 28.4121 528.143 27.4354 528.576 26.5832C529.022 25.731 529.625 25.0755 530.385 24.6166C531.146 24.1578 531.991 23.9283 532.922 23.9283C533.63 23.9283 534.305 24.0857 534.948 24.4003C535.59 24.7019 536.101 25.1083 536.481 25.6196V20.4476H539.274V35H536.481V33.3874C536.141 33.925 535.662 34.3576 535.046 34.6854C534.43 35.0131 533.715 35.177 532.902 35.177C531.985 35.177 531.146 34.941 530.385 34.469C529.625 33.9971 529.022 33.335 528.576 32.4828C528.143 31.6175 527.927 30.6277 527.927 29.5133ZM536.501 29.5527C536.501 28.884 536.37 28.3137 536.108 27.8418C535.846 27.3567 535.492 26.9896 535.046 26.7405C534.6 26.4783 534.122 26.3472 533.61 26.3472C533.099 26.3472 532.627 26.4717 532.194 26.7208C531.762 26.9699 531.408 27.337 531.132 27.8221C530.87 28.2941 530.739 28.8578 530.739 29.5133C530.739 30.1689 530.87 30.7457 531.132 31.2439C531.408 31.729 531.762 32.1026 532.194 32.3648C532.64 32.627 533.112 32.7581 533.61 32.7581C534.122 32.7581 534.6 32.6336 535.046 32.3845C535.492 32.1223 535.846 31.7552 536.108 31.2832C536.37 30.7981 536.501 30.2213 536.501 29.5527Z" fill="black"/>
<path d="M358.167 24.4849H354.333V20.2299C354.33 19.3261 353.969 18.4603 353.33 17.8212C352.691 17.1821 351.825 16.8216 350.922 16.8182H342.412C341.508 16.8216 340.642 17.1821 340.003 17.8212C339.364 18.4603 339.003 19.3261 339 20.2299V28.7399C339.003 29.6437 339.364 30.5095 340.003 31.1486C340.642 31.7877 341.508 32.1482 342.412 32.1516H346.667V35.9849C346.667 37.0016 347.071 37.9766 347.789 38.6955C348.508 39.4144 349.483 39.8182 350.5 39.8182H358.167C359.183 39.8182 360.158 39.4144 360.877 38.6955C361.596 37.9766 362 37.0016 362 35.9849V28.3182C362 27.3016 361.596 26.3266 360.877 25.6077C360.158 24.8888 359.183 24.4849 358.167 24.4849ZM346.667 28.3182V29.596H342.412C342.185 29.596 341.967 29.5058 341.806 29.3453C341.646 29.1847 341.556 28.967 341.556 28.7399V20.2299C341.556 20.0028 341.646 19.7851 341.806 19.6245C341.967 19.464 342.185 19.3738 342.412 19.3738H350.922C351.149 19.3738 351.366 19.464 351.527 19.6245C351.688 19.7851 351.778 20.0028 351.778 20.2299V24.4849H350.5C349.483 24.4849 348.508 24.8888 347.789 25.6077C347.071 26.3266 346.667 27.3016 346.667 28.3182Z" fill="black"/>
<rect x="1000" width="260" height="57.6488" rx="3.86905" fill="#F65CCC"/>
<path d="M1062.52 28.1171C1062.52 26.7667 1062.83 25.5606 1063.43 24.4986C1064.05 23.4236 1064.88 22.5911 1065.93 22.0011C1066.99 21.3981 1068.18 21.0965 1069.49 21.0965C1071.02 21.0965 1072.36 21.4898 1073.52 22.2765C1074.67 23.0631 1075.48 24.1512 1075.94 25.5409H1072.77C1072.46 24.8854 1072.01 24.3938 1071.43 24.066C1070.87 23.7382 1070.21 23.5744 1069.47 23.5744C1068.67 23.5744 1067.95 23.7645 1067.32 24.1447C1066.71 24.5118 1066.22 25.0362 1065.87 25.7179C1065.53 26.3996 1065.36 27.1994 1065.36 28.1171C1065.36 29.0217 1065.53 29.8214 1065.87 30.5163C1066.22 31.198 1066.71 31.729 1067.32 32.1092C1067.95 32.4763 1068.67 32.6598 1069.47 32.6598C1070.21 32.6598 1070.87 32.4959 1071.43 32.1682C1072.01 31.8273 1072.46 31.3291 1072.77 30.6736H1075.94C1075.48 32.0764 1074.67 33.1711 1073.52 33.9577C1072.38 34.7312 1071.03 35.118 1069.49 35.118C1068.18 35.118 1066.99 34.823 1065.93 34.233C1064.88 33.63 1064.05 32.7975 1063.43 31.7355C1062.83 30.6736 1062.52 29.4675 1062.52 28.1171ZM1088.57 24.1053V35H1085.8V33.6234C1085.45 34.0954 1084.98 34.469 1084.4 34.7443C1083.84 35.0066 1083.22 35.1377 1082.56 35.1377C1081.7 35.1377 1080.95 34.9607 1080.29 34.6067C1079.64 34.2396 1079.12 33.7086 1078.74 33.0138C1078.37 32.3058 1078.19 31.4668 1078.19 30.4966V24.1053H1080.94V30.1033C1080.94 30.9686 1081.16 31.6372 1081.59 32.1092C1082.02 32.568 1082.61 32.7975 1083.36 32.7975C1084.12 32.7975 1084.72 32.568 1085.15 32.1092C1085.58 31.6372 1085.8 30.9686 1085.8 30.1033V24.1053H1088.57ZM1095.46 35.177C1094.57 35.177 1093.77 35.0197 1093.06 34.705C1092.35 34.3773 1091.79 33.9381 1091.37 33.3874C1090.96 32.8368 1090.74 32.2272 1090.7 31.5585H1093.47C1093.52 31.9781 1093.73 32.3255 1094.08 32.6008C1094.45 32.8761 1094.9 33.0138 1095.44 33.0138C1095.96 33.0138 1096.37 32.9089 1096.66 32.6991C1096.96 32.4894 1097.11 32.2206 1097.11 31.8929C1097.11 31.5389 1096.93 31.2767 1096.56 31.1062C1096.21 30.9227 1095.64 30.726 1094.85 30.5163C1094.04 30.3196 1093.37 30.1164 1092.84 29.9066C1092.33 29.6969 1091.89 29.3757 1091.51 28.943C1091.14 28.5104 1090.96 27.927 1090.96 27.1928C1090.96 26.5897 1091.13 26.0391 1091.47 25.5409C1091.82 25.0427 1092.32 24.6494 1092.96 24.361C1093.62 24.0726 1094.38 23.9283 1095.26 23.9283C1096.56 23.9283 1097.6 24.2561 1098.37 24.9116C1099.14 25.554 1099.57 26.4259 1099.65 27.5271H1097.01C1096.97 27.0945 1096.79 26.7536 1096.46 26.5045C1096.15 26.2423 1095.72 26.1112 1095.18 26.1112C1094.69 26.1112 1094.3 26.203 1094.02 26.3865C1093.76 26.5701 1093.63 26.8257 1093.63 27.1535C1093.63 27.5206 1093.81 27.8024 1094.18 27.9991C1094.55 28.1826 1095.12 28.3727 1095.89 28.5694C1096.68 28.7661 1097.33 28.9693 1097.84 29.179C1098.35 29.3888 1098.79 29.7165 1099.16 30.1623C1099.54 30.5949 1099.73 31.1718 1099.75 31.8929C1099.75 32.5222 1099.57 33.0859 1099.21 33.5841C1098.87 34.0823 1098.38 34.4756 1097.72 34.764C1097.08 35.0393 1096.32 35.177 1095.46 35.177ZM1105.21 26.3669V31.6372C1105.21 32.0043 1105.3 32.2731 1105.47 32.4435C1105.65 32.6008 1105.95 32.6795 1106.37 32.6795H1107.65V35H1105.92C1103.6 35 1102.44 33.8725 1102.44 31.6175V26.3669H1101.14V24.1053H1102.44V21.4112H1105.21V24.1053H1107.65V26.3669H1105.21ZM1114.47 35.177C1113.42 35.177 1112.47 34.9476 1111.64 34.4887C1110.8 34.0167 1110.13 33.3547 1109.65 32.5025C1109.18 31.6503 1108.94 30.667 1108.94 29.5527C1108.94 28.4383 1109.18 27.455 1109.67 26.6029C1110.17 25.7507 1110.84 25.0952 1111.69 24.6363C1112.55 24.1643 1113.5 23.9283 1114.55 23.9283C1115.6 23.9283 1116.55 24.1643 1117.4 24.6363C1118.25 25.0952 1118.92 25.7507 1119.4 26.6029C1119.9 27.455 1120.15 28.4383 1120.15 29.5527C1120.15 30.667 1119.9 31.6503 1119.38 32.5025C1118.89 33.3547 1118.2 34.0167 1117.34 34.4887C1116.49 34.9476 1115.53 35.177 1114.47 35.177ZM1114.47 32.7778C1114.97 32.7778 1115.43 32.6598 1115.86 32.4238C1116.31 32.1747 1116.66 31.8076 1116.93 31.3226C1117.19 30.8375 1117.32 30.2475 1117.32 29.5527C1117.32 28.517 1117.04 27.7238 1116.49 27.1731C1115.96 26.6094 1115.29 26.3275 1114.51 26.3275C1113.72 26.3275 1113.06 26.6094 1112.52 27.1731C1112 27.7238 1111.73 28.517 1111.73 29.5527C1111.73 30.5884 1111.99 31.3881 1112.5 31.9519C1113.03 32.5025 1113.68 32.7778 1114.47 32.7778ZM1135.7 23.948C1137.04 23.948 1138.11 24.361 1138.93 25.1869C1139.75 25.9998 1140.16 27.1404 1140.16 28.6087V35H1137.41V28.9824C1137.41 28.1302 1137.19 27.4812 1136.76 27.0355C1136.33 26.5766 1135.74 26.3472 1134.99 26.3472C1134.25 26.3472 1133.65 26.5766 1133.2 27.0355C1132.77 27.4812 1132.55 28.1302 1132.55 28.9824V35H1129.8V28.9824C1129.8 28.1302 1129.58 27.4812 1129.15 27.0355C1128.72 26.5766 1128.13 26.3472 1127.38 26.3472C1126.62 26.3472 1126.02 26.5766 1125.57 27.0355C1125.14 27.4812 1124.92 28.1302 1124.92 28.9824V35H1122.17V24.1053H1124.92V25.4229C1125.28 24.9641 1125.73 24.6035 1126.28 24.3413C1126.84 24.0791 1127.46 23.948 1128.13 23.948C1128.98 23.948 1129.74 24.1316 1130.41 24.4986C1131.08 24.8526 1131.6 25.3639 1131.96 26.0326C1132.32 25.4033 1132.83 24.8985 1133.5 24.5183C1134.18 24.1381 1134.91 23.948 1135.7 23.948ZM1155.94 21.2735V23.4957H1150.22V27.0158H1154.6V29.1987H1150.22V35H1147.46V21.2735H1155.94ZM1168.18 24.1053V35H1165.4V33.6234C1165.05 34.0954 1164.58 34.469 1164.01 34.7443C1163.44 35.0066 1162.83 35.1377 1162.16 35.1377C1161.31 35.1377 1160.55 34.9607 1159.9 34.6067C1159.24 34.2396 1158.72 33.7086 1158.34 33.0138C1157.98 32.3058 1157.79 31.4668 1157.79 30.4966V24.1053H1160.55V30.1033C1160.55 30.9686 1160.76 31.6372 1161.19 32.1092C1161.63 32.568 1162.22 32.7975 1162.96 32.7975C1163.73 32.7975 1164.32 32.568 1164.75 32.1092C1165.19 31.6372 1165.4 30.9686 1165.4 30.1033V24.1053H1168.18ZM1176.93 23.948C1178.23 23.948 1179.28 24.361 1180.08 25.1869C1180.88 25.9998 1181.28 27.1404 1181.28 28.6087V35H1178.52V28.9824C1178.52 28.1171 1178.31 27.455 1177.87 26.9962C1177.44 26.5242 1176.85 26.2882 1176.1 26.2882C1175.34 26.2882 1174.74 26.5242 1174.29 26.9962C1173.86 27.455 1173.65 28.1171 1173.65 28.9824V35H1170.89V24.1053H1173.65V25.4623C1174.01 24.9903 1174.48 24.6232 1175.04 24.361C1175.62 24.0857 1176.25 23.948 1176.93 23.948ZM1183.19 29.5527C1183.19 28.4252 1183.42 27.4419 1183.87 26.6029C1184.33 25.7507 1184.97 25.0952 1185.78 24.6363C1186.59 24.1643 1187.53 23.9283 1188.57 23.9283C1189.92 23.9283 1191.04 24.2692 1191.92 24.951C1192.81 25.6196 1193.41 26.5635 1193.71 27.7828H1190.74C1190.58 27.3108 1190.31 26.9437 1189.93 26.6815C1189.56 26.4062 1189.11 26.2685 1188.55 26.2685C1187.77 26.2685 1187.15 26.557 1186.69 27.1338C1186.23 27.6976 1186 28.5038 1186 29.5527C1186 30.5884 1186.23 31.3947 1186.69 31.9715C1187.15 32.5353 1187.77 32.8171 1188.55 32.8171C1189.67 32.8171 1190.4 32.3189 1190.74 31.3226H1193.71C1193.41 32.5025 1192.81 33.4399 1191.92 34.1347C1191.03 34.8296 1189.91 35.177 1188.57 35.177C1187.53 35.177 1186.59 34.9476 1185.78 34.4887C1184.97 34.0167 1184.33 33.3612 1183.87 32.5222C1183.42 31.67 1183.19 30.6802 1183.19 29.5527ZM1198.93 26.3669V31.6372C1198.93 32.0043 1199.01 32.2731 1199.19 32.4435C1199.37 32.6008 1199.67 32.6795 1200.09 32.6795H1201.37V35H1199.64C1197.32 35 1196.16 33.8725 1196.16 31.6175V26.3669H1194.86V24.1053H1196.16V21.4112H1198.93V24.1053H1201.37V26.3669H1198.93ZM1204.74 22.8074C1204.26 22.8074 1203.85 22.6567 1203.53 22.3551C1203.21 22.0405 1203.05 21.6537 1203.05 21.1949C1203.05 20.736 1203.21 20.3558 1203.53 20.0543C1203.85 19.7396 1204.26 19.5823 1204.74 19.5823C1205.23 19.5823 1205.63 19.7396 1205.94 20.0543C1206.27 20.3558 1206.44 20.736 1206.44 21.1949C1206.44 21.6537 1206.27 22.0405 1205.94 22.3551C1205.63 22.6567 1205.23 22.8074 1204.74 22.8074ZM1206.1 24.1053V35H1203.35V24.1053H1206.1ZM1213.66 35.177C1212.61 35.177 1211.67 34.9476 1210.83 34.4887C1209.99 34.0167 1209.33 33.3547 1208.84 32.5025C1208.37 31.6503 1208.13 30.667 1208.13 29.5527C1208.13 28.4383 1208.38 27.455 1208.86 26.6029C1209.36 25.7507 1210.03 25.0952 1210.89 24.6363C1211.74 24.1643 1212.69 23.9283 1213.74 23.9283C1214.79 23.9283 1215.74 24.1643 1216.59 24.6363C1217.44 25.0952 1218.11 25.7507 1218.6 26.6029C1219.09 27.455 1219.34 28.4383 1219.34 29.5527C1219.34 30.667 1219.09 31.6503 1218.58 32.5025C1218.08 33.3547 1217.4 34.0167 1216.53 34.4887C1215.68 34.9476 1214.72 35.177 1213.66 35.177ZM1213.66 32.7778C1214.16 32.7778 1214.62 32.6598 1215.06 32.4238C1215.5 32.1747 1215.86 31.8076 1216.12 31.3226C1216.38 30.8375 1216.51 30.2475 1216.51 29.5527C1216.51 28.517 1216.24 27.7238 1215.68 27.1731C1215.15 26.6094 1214.49 26.3275 1213.7 26.3275C1212.91 26.3275 1212.25 26.6094 1211.71 27.1731C1211.19 27.7238 1210.93 28.517 1210.93 29.5527C1210.93 30.5884 1211.18 31.3881 1211.69 31.9519C1212.22 32.5025 1212.87 32.7778 1213.66 32.7778ZM1227.4 23.948C1228.7 23.948 1229.75 24.361 1230.55 25.1869C1231.35 25.9998 1231.75 27.1404 1231.75 28.6087V35H1228.99V28.9824C1228.99 28.1171 1228.78 27.455 1228.34 26.9962C1227.91 26.5242 1227.32 26.2882 1226.57 26.2882C1225.81 26.2882 1225.21 26.5242 1224.76 26.9962C1224.33 27.455 1224.12 28.1171 1224.12 28.9824V35H1221.36V24.1053H1224.12V25.4623C1224.48 24.9903 1224.95 24.6232 1225.51 24.361C1226.09 24.0857 1226.72 23.948 1227.4 23.948ZM1238.53 35.177C1237.64 35.177 1236.84 35.0197 1236.13 34.705C1235.43 34.3773 1234.86 33.9381 1234.44 33.3874C1234.04 32.8368 1233.81 32.2272 1233.77 31.5585H1236.55C1236.6 31.9781 1236.8 32.3255 1237.16 32.6008C1237.52 32.8761 1237.98 33.0138 1238.51 33.0138C1239.04 33.0138 1239.44 32.9089 1239.73 32.6991C1240.03 32.4894 1240.18 32.2206 1240.18 31.8929C1240.18 31.5389 1240 31.2767 1239.63 31.1062C1239.28 30.9227 1238.71 30.726 1237.92 30.5163C1237.11 30.3196 1236.44 30.1164 1235.92 29.9066C1235.41 29.6969 1234.96 29.3757 1234.58 28.943C1234.21 28.5104 1234.03 27.927 1234.03 27.1928C1234.03 26.5897 1234.2 26.0391 1234.54 25.5409C1234.89 25.0427 1235.39 24.6494 1236.04 24.361C1236.69 24.0726 1237.46 23.9283 1238.34 23.9283C1239.63 23.9283 1240.67 24.2561 1241.44 24.9116C1242.22 25.554 1242.64 26.4259 1242.72 27.5271H1240.09C1240.05 27.0945 1239.86 26.7536 1239.54 26.5045C1239.22 26.2423 1238.79 26.1112 1238.26 26.1112C1237.76 26.1112 1237.37 26.203 1237.1 26.3865C1236.83 26.5701 1236.7 26.8257 1236.7 27.1535C1236.7 27.5206 1236.89 27.8024 1237.25 27.9991C1237.62 28.1826 1238.19 28.3727 1238.97 28.5694C1239.75 28.7661 1240.4 28.9693 1240.91 29.179C1241.42 29.3888 1241.86 29.7165 1242.23 30.1623C1242.61 30.5949 1242.81 31.1718 1242.82 31.8929C1242.82 32.5222 1242.64 33.0859 1242.29 33.5841C1241.95 34.0823 1241.45 34.4756 1240.79 34.764C1240.15 35.0393 1239.4 35.177 1238.53 35.177Z" fill="black"/>
<path d="M1034 39C1033.63 39 1033.27 38.9 1032.95 38.702C1032.66 38.5223 1032.42 38.2716 1032.25 37.9738C1032.09 37.676 1032 37.3409 1032 37V20.9997C1032 20.3057 1032.36 19.6617 1032.95 19.2976C1033.24 19.1192 1033.57 19.0174 1033.91 19.0021C1034.25 18.9867 1034.59 19.0581 1034.89 19.2096L1050.89 27.2098C1051.23 27.3762 1051.51 27.6318 1051.7 27.9479C1051.9 28.264 1052 28.6283 1052 28.9998C1052 29.3714 1051.9 29.7356 1051.7 30.0517C1051.51 30.3679 1051.23 30.6234 1050.89 30.7899L1034.89 38.79C1034.61 38.93 1034.3 39 1034 39Z" fill="black"/>
<rect x="620" width="330" height="58" rx="3.86905" fill="#A485FF"/>
<path d="M682.992 21.2735C684.434 21.2735 685.699 21.5554 686.787 22.1191C687.888 22.6829 688.734 23.4892 689.324 24.538C689.927 25.5737 690.229 26.7798 690.229 28.1564C690.229 29.533 689.927 30.7392 689.324 31.7749C688.734 32.7975 687.888 33.5906 686.787 34.1544C685.699 34.7181 684.434 35 682.992 35H678.193V21.2735H682.992ZM682.893 32.6598C684.336 32.6598 685.45 32.2665 686.237 31.4799C687.023 30.6933 687.416 29.5854 687.416 28.1564C687.416 26.7274 687.023 25.613 686.237 24.8133C685.45 24.0005 684.336 23.594 682.893 23.594H680.947V32.6598H682.893ZM697.127 35.177C696.078 35.177 695.134 34.9476 694.295 34.4887C693.456 34.0167 692.794 33.3547 692.309 32.5025C691.837 31.6503 691.601 30.667 691.601 29.5527C691.601 28.4383 691.844 27.455 692.329 26.6029C692.827 25.7507 693.502 25.0952 694.354 24.6363C695.207 24.1643 696.157 23.9283 697.206 23.9283C698.255 23.9283 699.205 24.1643 700.057 24.6363C700.91 25.0952 701.578 25.7507 702.063 26.6029C702.561 27.455 702.81 28.4383 702.81 29.5527C702.81 30.667 702.555 31.6503 702.044 32.5025C701.545 33.3547 700.864 34.0167 699.998 34.4887C699.146 34.9476 698.189 35.177 697.127 35.177ZM697.127 32.7778C697.625 32.7778 698.091 32.6598 698.523 32.4238C698.969 32.1747 699.323 31.8076 699.585 31.3226C699.848 30.8375 699.979 30.2475 699.979 29.5527C699.979 28.517 699.703 27.7238 699.153 27.1731C698.615 26.6094 697.953 26.3275 697.167 26.3275C696.38 26.3275 695.718 26.6094 695.18 27.1731C694.656 27.7238 694.394 28.517 694.394 29.5527C694.394 30.5884 694.649 31.3881 695.161 31.9519C695.685 32.5025 696.341 32.7778 697.127 32.7778ZM719.933 24.1053L716.747 35H713.778L711.792 27.3895L709.805 35H706.816L703.611 24.1053H706.403L708.33 32.4042L710.415 24.1053H713.326L715.371 32.3845L717.298 24.1053H719.933ZM727.46 23.948C728.758 23.948 729.807 24.361 730.607 25.1869C731.406 25.9998 731.806 27.1404 731.806 28.6087V35H729.053V28.9824C729.053 28.1171 728.837 27.455 728.404 26.9962C727.971 26.5242 727.381 26.2882 726.634 26.2882C725.874 26.2882 725.271 26.5242 724.825 26.9962C724.392 27.455 724.176 28.1171 724.176 28.9824V35H721.423V24.1053H724.176V25.4623C724.543 24.9903 725.008 24.6232 725.572 24.361C726.149 24.0857 726.778 23.948 727.46 23.948ZM737.177 20.4476V35H734.424V20.4476H737.177ZM744.735 35.177C743.686 35.177 742.742 34.9476 741.903 34.4887C741.064 34.0167 740.402 33.3547 739.917 32.5025C739.445 31.6503 739.209 30.667 739.209 29.5527C739.209 28.4383 739.452 27.455 739.937 26.6029C740.435 25.7507 741.11 25.0952 741.962 24.6363C742.815 24.1643 743.765 23.9283 744.814 23.9283C745.863 23.9283 746.813 24.1643 747.665 24.6363C748.518 25.0952 749.186 25.7507 749.671 26.6029C750.169 27.455 750.419 28.4383 750.419 29.5527C750.419 30.667 750.163 31.6503 749.652 32.5025C749.153 33.3547 748.472 34.0167 747.606 34.4887C746.754 34.9476 745.797 35.177 744.735 35.177ZM744.735 32.7778C745.233 32.7778 745.699 32.6598 746.131 32.4238C746.577 32.1747 746.931 31.8076 747.193 31.3226C747.456 30.8375 747.587 30.2475 747.587 29.5527C747.587 28.517 747.311 27.7238 746.761 27.1731C746.223 26.6094 745.561 26.3275 744.775 26.3275C743.988 26.3275 743.326 26.6094 742.788 27.1731C742.264 27.7238 742.002 28.517 742.002 29.5527C742.002 30.5884 742.257 31.3881 742.769 31.9519C743.293 32.5025 743.949 32.7778 744.735 32.7778ZM751.73 29.5133C751.73 28.4121 751.946 27.4354 752.379 26.5832C752.825 25.731 753.421 25.0755 754.169 24.6166C754.929 24.1578 755.775 23.9283 756.706 23.9283C757.518 23.9283 758.226 24.0922 758.829 24.42C759.446 24.7477 759.937 25.1607 760.304 25.6589V24.1053H763.077V35H760.304V33.4071C759.95 33.9184 759.459 34.3445 758.829 34.6854C758.213 35.0131 757.499 35.177 756.686 35.177C755.768 35.177 754.929 34.941 754.169 34.469C753.421 33.9971 752.825 33.335 752.379 32.4828C751.946 31.6175 751.73 30.6277 751.73 29.5133ZM760.304 29.5527C760.304 28.884 760.173 28.3137 759.911 27.8418C759.649 27.3567 759.295 26.9896 758.849 26.7405C758.403 26.4783 757.925 26.3472 757.413 26.3472C756.902 26.3472 756.43 26.4717 755.998 26.7208C755.565 26.9699 755.211 27.337 754.936 27.8221C754.673 28.2941 754.542 28.8578 754.542 29.5133C754.542 30.1689 754.673 30.7457 754.936 31.2439C755.211 31.729 755.565 32.1026 755.998 32.3648C756.443 32.627 756.915 32.7581 757.413 32.7581C757.925 32.7581 758.403 32.6336 758.849 32.3845C759.295 32.1223 759.649 31.7552 759.911 31.2832C760.173 30.7981 760.304 30.2213 760.304 29.5527ZM765.058 29.5133C765.058 28.4121 765.274 27.4354 765.707 26.5832C766.153 25.731 766.756 25.0755 767.516 24.6166C768.277 24.1578 769.122 23.9283 770.053 23.9283C770.761 23.9283 771.436 24.0857 772.079 24.4003C772.721 24.7019 773.232 25.1083 773.613 25.6196V20.4476H776.405V35H773.613V33.3874C773.272 33.925 772.793 34.3576 772.177 34.6854C771.561 35.0131 770.846 35.177 770.033 35.177C769.116 35.177 768.277 34.941 767.516 34.469C766.756 33.9971 766.153 33.335 765.707 32.4828C765.274 31.6175 765.058 30.6277 765.058 29.5133ZM773.632 29.5527C773.632 28.884 773.501 28.3137 773.239 27.8418C772.977 27.3567 772.623 26.9896 772.177 26.7405C771.731 26.4783 771.253 26.3472 770.741 26.3472C770.23 26.3472 769.758 26.4717 769.326 26.7208C768.893 26.9699 768.539 27.337 768.264 27.8221C768.001 28.2941 767.87 28.8578 767.87 29.5133C767.87 30.1689 768.001 30.7457 768.264 31.2439C768.539 31.729 768.893 32.1026 769.326 32.3648C769.771 32.627 770.243 32.7581 770.741 32.7581C771.253 32.7581 771.731 32.6336 772.177 32.3845C772.623 32.1223 772.977 31.7552 773.239 31.2832C773.501 30.7981 773.632 30.2213 773.632 29.5527ZM788.578 21.2735C790.02 21.2735 791.286 21.5554 792.374 22.1191C793.475 22.6829 794.321 23.4892 794.911 24.538C795.514 25.5737 795.815 26.7798 795.815 28.1564C795.815 29.533 795.514 30.7392 794.911 31.7749C794.321 32.7975 793.475 33.5906 792.374 34.1544C791.286 34.7181 790.02 35 788.578 35H783.78V21.2735H788.578ZM788.48 32.6598C789.922 32.6598 791.036 32.2665 791.823 31.4799C792.61 30.6933 793.003 29.5854 793.003 28.1564C793.003 26.7274 792.61 25.613 791.823 24.8133C791.036 24.0005 789.922 23.594 788.48 23.594H786.533V32.6598H788.48ZM808.004 29.3167C808.004 29.71 807.978 30.064 807.925 30.3786H799.961C800.026 31.1652 800.301 31.7814 800.787 32.2272C801.272 32.6729 801.868 32.8958 802.576 32.8958C803.599 32.8958 804.326 32.4566 804.759 31.5782H807.728C807.414 32.627 806.811 33.4923 805.919 34.1741C805.028 34.8427 803.933 35.177 802.635 35.177C801.586 35.177 800.642 34.9476 799.803 34.4887C798.977 34.0167 798.328 33.3547 797.856 32.5025C797.398 31.6503 797.168 30.667 797.168 29.5527C797.168 28.4252 797.398 27.4354 797.856 26.5832C798.315 25.731 798.958 25.0755 799.784 24.6166C800.61 24.1578 801.56 23.9283 802.635 23.9283C803.671 23.9283 804.595 24.1512 805.408 24.597C806.234 25.0427 806.87 25.6786 807.315 26.5045C807.774 27.3174 808.004 28.2547 808.004 29.3167ZM805.152 28.5301C805.139 27.8221 804.884 27.2584 804.385 26.8388C803.887 26.4062 803.278 26.1899 802.556 26.1899C801.875 26.1899 801.298 26.3996 800.826 26.8192C800.367 27.2256 800.085 27.7959 799.98 28.5301H805.152ZM812.766 25.6786C813.12 25.1804 813.606 24.7674 814.222 24.4397C814.851 24.0988 815.566 23.9283 816.365 23.9283C817.296 23.9283 818.135 24.1578 818.882 24.6166C819.643 25.0755 820.239 25.731 820.672 26.5832C821.118 27.4222 821.341 28.399 821.341 29.5133C821.341 30.6277 821.118 31.6175 820.672 32.4828C820.239 33.335 819.643 33.9971 818.882 34.469C818.135 34.941 817.296 35.177 816.365 35.177C815.566 35.177 814.858 35.0131 814.241 34.6854C813.638 34.3576 813.147 33.9446 812.766 33.4464V40.1917H810.013V24.1053H812.766V25.6786ZM818.528 29.5133C818.528 28.8578 818.391 28.2941 818.116 27.8221C817.853 27.337 817.499 26.9699 817.054 26.7208C816.621 26.4717 816.149 26.3472 815.638 26.3472C815.139 26.3472 814.667 26.4783 814.222 26.7405C813.789 26.9896 813.435 27.3567 813.16 27.8418C812.898 28.3269 812.766 28.8972 812.766 29.5527C812.766 30.2082 812.898 30.7785 813.16 31.2636C813.435 31.7486 813.789 32.1223 814.222 32.3845C814.667 32.6336 815.139 32.7581 815.638 32.7581C816.149 32.7581 816.621 32.627 817.054 32.3648C817.499 32.1026 817.853 31.729 818.116 31.2439C818.391 30.7588 818.528 30.182 818.528 29.5133ZM833.469 29.3167C833.469 29.71 833.443 30.064 833.39 30.3786H825.426C825.491 31.1652 825.767 31.7814 826.252 32.2272C826.737 32.6729 827.333 32.8958 828.041 32.8958C829.064 32.8958 829.792 32.4566 830.224 31.5782H833.194C832.879 32.627 832.276 33.4923 831.384 34.1741C830.493 34.8427 829.398 35.177 828.1 35.177C827.052 35.177 826.108 34.9476 825.269 34.4887C824.443 34.0167 823.794 33.3547 823.322 32.5025C822.863 31.6503 822.633 30.667 822.633 29.5527C822.633 28.4252 822.863 27.4354 823.322 26.5832C823.78 25.731 824.423 25.0755 825.249 24.6166C826.075 24.1578 827.025 23.9283 828.1 23.9283C829.136 23.9283 830.06 24.1512 830.873 24.597C831.699 25.0427 832.335 25.6786 832.781 26.5045C833.24 27.3174 833.469 28.2547 833.469 29.3167ZM830.618 28.5301C830.604 27.8221 830.349 27.2584 829.851 26.8388C829.352 26.4062 828.743 26.1899 828.022 26.1899C827.34 26.1899 826.763 26.3996 826.291 26.8192C825.832 27.2256 825.55 27.7959 825.445 28.5301H830.618ZM841.516 23.948C842.814 23.948 843.863 24.361 844.662 25.1869C845.462 25.9998 845.862 27.1404 845.862 28.6087V35H843.109V28.9824C843.109 28.1171 842.892 27.455 842.46 26.9962C842.027 26.5242 841.437 26.2882 840.69 26.2882C839.93 26.2882 839.326 26.5242 838.881 26.9962C838.448 27.455 838.232 28.1171 838.232 28.9824V35H835.479V24.1053H838.232V25.4623C838.599 24.9903 839.064 24.6232 839.628 24.361C840.205 24.0857 840.834 23.948 841.516 23.948ZM847.772 29.5133C847.772 28.4121 847.988 27.4354 848.421 26.5832C848.867 25.731 849.47 25.0755 850.23 24.6166C850.991 24.1578 851.836 23.9283 852.767 23.9283C853.475 23.9283 854.15 24.0857 854.793 24.4003C855.435 24.7019 855.946 25.1083 856.327 25.6196V20.4476H859.119V35H856.327V33.3874C855.986 33.925 855.507 34.3576 854.891 34.6854C854.275 35.0131 853.56 35.177 852.747 35.177C851.83 35.177 850.991 34.941 850.23 34.469C849.47 33.9971 848.867 33.335 848.421 32.4828C847.988 31.6175 847.772 30.6277 847.772 29.5133ZM856.346 29.5527C856.346 28.884 856.215 28.3137 855.953 27.8418C855.691 27.3567 855.337 26.9896 854.891 26.7405C854.445 26.4783 853.967 26.3472 853.455 26.3472C852.944 26.3472 852.472 26.4717 852.039 26.7208C851.607 26.9699 851.253 27.337 850.978 27.8221C850.715 28.2941 850.584 28.8578 850.584 29.5133C850.584 30.1689 850.715 30.7457 850.978 31.2439C851.253 31.729 851.607 32.1026 852.039 32.3648C852.485 32.627 852.957 32.7581 853.455 32.7581C853.967 32.7581 854.445 32.6336 854.891 32.3845C855.337 32.1223 855.691 31.7552 855.953 31.2832C856.215 30.7981 856.346 30.2213 856.346 29.5527ZM871.936 29.3167C871.936 29.71 871.909 30.064 871.857 30.3786H863.893C863.958 31.1652 864.233 31.7814 864.718 32.2272C865.204 32.6729 865.8 32.8958 866.508 32.8958C867.531 32.8958 868.258 32.4566 868.691 31.5782H871.66C871.346 32.627 870.743 33.4923 869.851 34.1741C868.96 34.8427 867.865 35.177 866.567 35.177C865.518 35.177 864.574 34.9476 863.735 34.4887C862.909 34.0167 862.26 33.3547 861.788 32.5025C861.329 31.6503 861.1 30.667 861.1 29.5527C861.1 28.4252 861.329 27.4354 861.788 26.5832C862.247 25.731 862.89 25.0755 863.716 24.6166C864.541 24.1578 865.492 23.9283 866.567 23.9283C867.603 23.9283 868.527 24.1512 869.34 24.597C870.166 25.0427 870.802 25.6786 871.247 26.5045C871.706 27.3174 871.936 28.2547 871.936 29.3167ZM869.084 28.5301C869.071 27.8221 868.815 27.2584 868.317 26.8388C867.819 26.4062 867.209 26.1899 866.488 26.1899C865.807 26.1899 865.23 26.3996 864.758 26.8192C864.299 27.2256 864.017 27.7959 863.912 28.5301H869.084ZM879.983 23.948C881.28 23.948 882.329 24.361 883.129 25.1869C883.929 25.9998 884.329 27.1404 884.329 28.6087V35H881.575V28.9824C881.575 28.1171 881.359 27.455 880.927 26.9962C880.494 26.5242 879.904 26.2882 879.157 26.2882C878.396 26.2882 877.793 26.5242 877.347 26.9962C876.915 27.455 876.698 28.1171 876.698 28.9824V35H873.945V24.1053H876.698V25.4623C877.066 24.9903 877.531 24.6232 878.095 24.361C878.672 24.0857 879.301 23.948 879.983 23.948ZM886.239 29.5527C886.239 28.4252 886.468 27.4419 886.927 26.6029C887.386 25.7507 888.022 25.0952 888.835 24.6363C889.647 24.1643 890.578 23.9283 891.627 23.9283C892.977 23.9283 894.092 24.2692 894.97 24.951C895.862 25.6196 896.458 26.5635 896.76 27.7828H893.79C893.633 27.3108 893.364 26.9437 892.984 26.6815C892.617 26.4062 892.158 26.2685 891.607 26.2685C890.821 26.2685 890.198 26.557 889.739 27.1338C889.28 27.6976 889.051 28.5038 889.051 29.5527C889.051 30.5884 889.28 31.3947 889.739 31.9715C890.198 32.5353 890.821 32.8171 891.607 32.8171C892.722 32.8171 893.449 32.3189 893.79 31.3226H896.76C896.458 32.5025 895.862 33.4399 894.97 34.1347C894.079 34.8296 892.964 35.177 891.627 35.177C890.578 35.177 889.647 34.9476 888.835 34.4887C888.022 34.0167 887.386 33.3612 886.927 32.5222C886.468 31.67 886.239 30.6802 886.239 29.5527ZM900.173 22.8074C899.688 22.8074 899.281 22.6567 898.954 22.3551C898.639 22.0405 898.482 21.6537 898.482 21.1949C898.482 20.736 898.639 20.3558 898.954 20.0543C899.281 19.7396 899.688 19.5823 900.173 19.5823C900.658 19.5823 901.058 19.7396 901.373 20.0543C901.7 20.3558 901.864 20.736 901.864 21.1949C901.864 21.6537 901.7 22.0405 901.373 22.3551C901.058 22.6567 900.658 22.8074 900.173 22.8074ZM901.53 24.1053V35H898.777V24.1053H901.53ZM914.378 29.3167C914.378 29.71 914.352 30.064 914.299 30.3786H906.335C906.4 31.1652 906.675 31.7814 907.161 32.2272C907.646 32.6729 908.242 32.8958 908.95 32.8958C909.973 32.8958 910.7 32.4566 911.133 31.5782H914.102C913.788 32.627 913.185 33.4923 912.293 34.1741C911.402 34.8427 910.307 35.177 909.009 35.177C907.96 35.177 907.016 34.9476 906.177 34.4887C905.351 34.0167 904.702 33.3547 904.23 32.5025C903.772 31.6503 903.542 30.667 903.542 29.5527C903.542 28.4252 903.772 27.4354 904.23 26.5832C904.689 25.731 905.332 25.0755 906.158 24.6166C906.984 24.1578 907.934 23.9283 909.009 23.9283C910.045 23.9283 910.969 24.1512 911.782 24.597C912.608 25.0427 913.244 25.6786 913.689 26.5045C914.148 27.3174 914.378 28.2547 914.378 29.3167ZM911.526 28.5301C911.513 27.8221 911.257 27.2584 910.759 26.8388C910.261 26.4062 909.651 26.1899 908.93 26.1899C908.249 26.1899 907.672 26.3996 907.2 26.8192C906.741 27.2256 906.459 27.7959 906.354 28.5301H911.526ZM920.556 35.177C919.665 35.177 918.865 35.0197 918.157 34.705C917.449 34.3773 916.885 33.9381 916.466 33.3874C916.06 32.8368 915.837 32.2272 915.797 31.5585H918.57C918.623 31.9781 918.826 32.3255 919.18 32.6008C919.547 32.8761 919.999 33.0138 920.537 33.0138C921.061 33.0138 921.468 32.9089 921.756 32.6991C922.058 32.4894 922.208 32.2206 922.208 31.8929C922.208 31.5389 922.025 31.2767 921.658 31.1062C921.304 30.9227 920.733 30.726 919.947 30.5163C919.134 30.3196 918.465 30.1164 917.941 29.9066C917.43 29.6969 916.984 29.3757 916.604 28.943C916.237 28.5104 916.053 27.927 916.053 27.1928C916.053 26.5897 916.223 26.0391 916.564 25.5409C916.918 25.0427 917.416 24.6494 918.059 24.361C918.714 24.0726 919.481 23.9283 920.36 23.9283C921.658 23.9283 922.693 24.2561 923.467 24.9116C924.24 25.554 924.666 26.4259 924.745 27.5271H922.11C922.071 27.0945 921.887 26.7536 921.559 26.5045C921.245 26.2423 920.819 26.1112 920.281 26.1112C919.783 26.1112 919.396 26.203 919.121 26.3865C918.859 26.5701 918.727 26.8257 918.727 27.1535C918.727 27.5206 918.911 27.8024 919.278 27.9991C919.645 28.1826 920.216 28.3727 920.989 28.5694C921.776 28.7661 922.425 28.9693 922.936 29.179C923.447 29.3888 923.886 29.7165 924.253 30.1623C924.634 30.5949 924.83 31.1718 924.843 31.8929C924.843 32.5222 924.666 33.0859 924.312 33.5841C923.972 34.0823 923.473 34.4756 922.818 34.764C922.175 35.0393 921.422 35.177 920.556 35.177Z" fill="black"/>
<g clip-path="url(#clip0_294_79)">
<path d="M662.09 27.9969H665.594C665.935 27.9969 666.214 27.7229 666.214 27.377C666.214 27.0356 665.935 26.7571 665.594 26.7571H662.09C661.749 26.7571 661.47 27.0356 661.47 27.377C661.47 27.7184 661.749 27.9969 662.09 27.9969Z" fill="#231F20"/>
<path d="M668.563 24.1292H658.061L656.354 22.3278C656.205 22.175 656.008 22.0852 655.797 22.0852L649.782 22.0403C649.571 22.0448 649.382 22.1211 649.234 22.2649C649.085 22.4086 649.004 22.6063 649.004 22.8129L649 36.7252C649 36.9319 649.081 37.1295 649.225 37.2733C649.373 37.417 649.566 37.4979 649.773 37.4979H668.554C668.981 37.4979 669.327 37.152 669.332 36.7208L669.336 24.9018C669.336 24.6952 669.255 24.4975 669.112 24.3538C668.963 24.21 668.77 24.1292 668.563 24.1292ZM667.782 35.9526H650.545L650.541 23.5946L655.451 23.6305L657.162 25.4364C657.311 25.5936 657.513 25.679 657.724 25.679H667.786L667.782 35.9526Z" fill="#231F20"/>
<path d="M671.775 21.7797C671.632 21.6359 671.434 21.5551 671.227 21.5551H660.725L659.018 19.7537C658.874 19.601 658.672 19.5156 658.461 19.5111L652.446 19.4662H652.441C652.239 19.4662 652.041 19.547 651.898 19.6908C651.749 19.8345 651.668 20.0322 651.668 20.2388V21.4472H653.214V21.0205L658.124 21.0564L659.835 22.8623C659.983 23.015 660.186 23.1049 660.397 23.1049H670.459L670.455 33.3785H669.826V34.9238H671.227C671.654 34.9238 672 34.5779 672 34.1511L672.005 22.3277C672 22.1211 671.919 21.9234 671.775 21.7797Z" fill="#231F20"/>
</g>
<path d="M310 29L300 23.2265V34.7735L310 29ZM260 30H301V28H260V30Z" fill="white"/>
<path d="M620 29L610 23.2265V34.7735L620 29ZM570 30H611V28H570V30Z" fill="white"/>
<path d="M1000 29L990 23.2265V34.7735L1000 29ZM950 30H991V28H950V30Z" fill="white"/>
<defs>
<clipPath id="clip0_294_79">
<rect width="23" height="23" fill="white" transform="translate(649 17)"/>
</clipPath>
</defs>
</svg>
