<svg width="258" height="53" viewBox="0 0 258 53" fill="none" xmlns="http://www.w3.org/2000/svg">
<path d="M0.515625 26.1406C0.515625 25.474 0.875 25.0677 1.59375 24.9219L2.26562 24.7969C2.33854 24.776 2.40104 24.7656 2.45312 24.7656C2.51562 24.7656 2.57292 24.7656 2.625 24.7656C3.26042 24.7656 3.63542 25.1302 3.75 25.8594C3.79167 26.2135 3.84375 26.6615 3.90625 27.2031C3.96875 27.7448 4.04688 28.3385 4.14062 28.9844C4.24479 29.6302 4.35938 30.3073 4.48438 31.0156C4.61979 31.724 4.77083 32.4219 4.9375 33.1094C5.10417 33.7865 5.29167 34.4323 5.5 35.0469C5.70833 35.6615 5.94271 36.2031 6.20312 36.6719C6.46354 37.1406 6.74479 37.5156 7.04688 37.7969C7.35938 38.0677 7.69792 38.2031 8.0625 38.2031C8.32292 38.2031 8.58333 38.125 8.84375 37.9688C9.11458 37.8125 9.38021 37.6094 9.64062 37.3594C9.90104 37.099 10.151 36.8073 10.3906 36.4844C10.6302 36.1615 10.849 35.8333 11.0469 35.5C11.2448 35.1667 11.4219 34.849 11.5781 34.5469C11.7448 34.2344 11.875 33.9635 11.9688 33.7344C12.0312 33.5365 12.0625 33.3542 12.0625 33.1875C12.0625 33.1042 12.0573 33.0208 12.0469 32.9375C12.0365 32.8542 12.0208 32.7656 12 32.6719C11.8021 32.026 11.651 31.3802 11.5469 30.7344C11.4427 30.0885 11.3906 29.3906 11.3906 28.6406C11.3906 28.2031 11.4271 27.7708 11.5 27.3438C11.5729 26.9167 11.6979 26.526 11.875 26.1719C11.9688 25.9844 12.1094 25.8229 12.2969 25.6875C12.4844 25.5521 12.6875 25.4427 12.9062 25.3594C13.1354 25.276 13.3698 25.2188 13.6094 25.1875C13.8594 25.1458 14.0885 25.125 14.2969 25.125C14.526 25.125 14.7344 25.1719 14.9219 25.2656C15.1094 25.349 15.276 25.4948 15.4219 25.7031C15.7135 26.099 15.9167 26.5521 16.0312 27.0625C16.1562 27.5729 16.2188 28.0885 16.2188 28.6094C16.2188 29.1719 16.1667 29.75 16.0625 30.3438C15.9583 30.9271 15.8333 31.5104 15.6875 32.0938C15.6146 32.2396 15.5781 32.401 15.5781 32.5781C15.5781 32.6615 15.5885 32.75 15.6094 32.8438C15.6406 32.9375 15.6771 33.0417 15.7188 33.1562C15.9062 33.6458 16.125 34.1458 16.375 34.6562C16.6354 35.1562 16.9323 35.6094 17.2656 36.0156C17.599 36.4219 17.974 36.7552 18.3906 37.0156C18.8073 37.276 19.2812 37.4062 19.8125 37.4062C20.2812 37.4062 20.7031 37.2083 21.0781 36.8125C21.4531 36.4167 21.7656 35.9167 22.0156 35.3125C22.276 34.7083 22.474 34.0521 22.6094 33.3438C22.7448 32.625 22.8125 31.9427 22.8125 31.2969C22.8125 30.6094 22.7865 29.9323 22.7344 29.2656C22.6823 28.599 22.6146 27.9844 22.5312 27.4219C22.5104 27.3698 22.5 27.3177 22.5 27.2656C22.5 27.2135 22.5 27.1615 22.5 27.1094C22.5 26.5156 22.8177 26.1094 23.4531 25.8906L24.1562 25.6562C24.3542 25.5938 24.5365 25.5625 24.7031 25.5625C25.2552 25.5625 25.5885 25.9062 25.7031 26.5938C25.8177 27.2396 25.9062 27.8854 25.9688 28.5312C26.0417 29.1771 26.0781 29.8229 26.0781 30.4688C26.0781 31.8438 25.9167 33.1354 25.5938 34.3438C25.2708 35.5521 24.8177 36.6094 24.2344 37.5156C23.6615 38.4115 22.9792 39.1198 22.1875 39.6406C21.3958 40.1615 20.526 40.4219 19.5781 40.4219C18.651 40.4219 17.7188 40.1458 16.7812 39.5938C15.8438 39.0312 14.9948 38.1406 14.2344 36.9219C14.0885 36.651 13.9219 36.5156 13.7344 36.5156C13.5573 36.5156 13.3958 36.651 13.25 36.9219C12.8854 37.5677 12.4844 38.1667 12.0469 38.7188C11.6094 39.2604 11.1458 39.7292 10.6562 40.125C10.1667 40.5208 9.65625 40.8281 9.125 41.0469C8.59375 41.2656 8.05729 41.375 7.51562 41.375C6.64062 41.375 5.86979 41.1354 5.20312 40.6562C4.54688 40.1875 3.97396 39.5573 3.48438 38.7656C3.00521 37.974 2.59896 37.0677 2.26562 36.0469C1.93229 35.0156 1.65104 33.9479 1.42188 32.8438C1.20312 31.7292 1.02083 30.6146 0.875 29.5C0.739583 28.3854 0.619792 27.3438 0.515625 26.375V26.1406ZM41.8125 36.5781C42.1146 36.3177 42.4115 36.1875 42.7031 36.1875C42.8698 36.1875 43.0208 36.2292 43.1562 36.3125C43.2917 36.3958 43.4427 36.526 43.6094 36.7031C43.7656 36.9427 43.875 37.1406 43.9375 37.2969C44.0104 37.4427 44.0469 37.5885 44.0469 37.7344C44.0469 38.0469 43.8906 38.3438 43.5781 38.625C43.0781 39.0417 42.5365 39.4167 41.9531 39.75C41.3698 40.0729 40.7604 40.349 40.125 40.5781C39.4896 40.8073 38.8333 40.9792 38.1562 41.0938C37.4792 41.2188 36.8073 41.2812 36.1406 41.2812C35.2969 41.2812 34.5052 41.1719 33.7656 40.9531C33.026 40.7448 32.3646 40.4427 31.7812 40.0469C31.2083 39.651 30.724 39.1771 30.3281 38.625C29.9323 38.0625 29.651 37.4323 29.4844 36.7344C29.3906 36.4427 29.3021 36.2552 29.2188 36.1719C29.1458 36.0781 29.0208 36.0312 28.8438 36.0312C28.4583 36.0312 28.1615 35.9375 27.9531 35.75C27.7448 35.5625 27.6406 35.2917 27.6406 34.9375C27.6406 34.7917 27.651 34.6979 27.6719 34.6562L27.7031 34.3438C27.7552 33.9688 27.8542 33.6979 28 33.5312C28.1562 33.3646 28.3958 33.2812 28.7188 33.2812H28.9531C29.3906 33.2812 29.6979 33.0781 29.875 32.6719C30.1979 31.9531 30.6094 31.2969 31.1094 30.7031C31.6094 30.1094 32.1719 29.6042 32.7969 29.1875C33.4219 28.7604 34.0885 28.4323 34.7969 28.2031C35.5156 27.9635 36.2448 27.8438 36.9844 27.8438C37.7552 27.8438 38.474 27.9583 39.1406 28.1875C39.8177 28.4062 40.4062 28.7135 40.9062 29.1094C41.4062 29.5052 41.7969 29.9688 42.0781 30.5C42.3698 31.0312 42.5156 31.6042 42.5156 32.2188C42.5156 32.6458 42.4323 33.0365 42.2656 33.3906C42.099 33.7448 41.8594 34.0573 41.5469 34.3281C41.2344 34.5885 40.8542 34.8021 40.4062 34.9688C39.9688 35.1354 39.4688 35.2448 38.9062 35.2969L33.4844 35.8438C33.276 35.8438 33.1042 35.8958 32.9688 36C32.8438 36.1042 32.7812 36.2448 32.7812 36.4219C32.7812 36.6927 32.8802 36.9531 33.0781 37.2031C33.2865 37.4531 33.5573 37.6771 33.8906 37.875C34.2344 38.0625 34.625 38.2135 35.0625 38.3281C35.5104 38.4427 35.9688 38.5 36.4375 38.5C36.8854 38.5 37.3438 38.4583 37.8125 38.375C38.2917 38.2812 38.7604 38.151 39.2188 37.9844C39.6875 37.8177 40.1406 37.6198 40.5781 37.3906C41.0156 37.151 41.4271 36.8802 41.8125 36.5781ZM38.3281 32.5469C38.4844 32.5156 38.6198 32.4427 38.7344 32.3281C38.849 32.2031 38.9062 32.0521 38.9062 31.875C38.9062 31.7188 38.849 31.5729 38.7344 31.4375C38.6198 31.3021 38.4635 31.1823 38.2656 31.0781C38.0677 30.9635 37.8385 30.875 37.5781 30.8125C37.3177 30.75 37.0417 30.7188 36.75 30.7188C36.3229 30.7188 35.8854 30.7812 35.4375 30.9062C34.9896 31.0312 34.5833 31.1979 34.2188 31.4062C33.8542 31.6042 33.5573 31.8281 33.3281 32.0781C33.099 32.3177 32.9844 32.5573 32.9844 32.7969C32.9844 33.0365 33.1302 33.1562 33.4219 33.1562C33.599 33.1562 33.8854 33.1354 34.2812 33.0938C34.6771 33.0521 35.1146 33.0052 35.5938 32.9531C36.0729 32.8906 36.5573 32.8229 37.0469 32.75C37.5365 32.6771 37.9635 32.6094 38.3281 32.5469ZM45.6719 36.3906C45.474 33.9531 45.2448 31.5312 44.9844 29.125C44.7344 26.7188 44.3646 24.3177 43.875 21.9219C43.8542 21.8385 43.8438 21.7656 43.8438 21.7031C43.8438 21.6302 43.8438 21.5625 43.8438 21.5C43.8438 21.2604 43.8906 21.0521 43.9844 20.875C44.0885 20.6979 44.224 20.5521 44.3906 20.4375C44.5573 20.3125 44.7448 20.2188 44.9531 20.1562C45.1719 20.0938 45.401 20.0625 45.6406 20.0625C46.276 20.0625 46.7135 20.3594 46.9531 20.9531C47.0573 21.2552 47.1615 21.6875 47.2656 22.25C47.3802 22.8125 47.4948 23.4635 47.6094 24.2031C47.7344 24.9427 47.8542 25.7552 47.9688 26.6406C48.0833 27.5156 48.1927 28.4167 48.2969 29.3438C48.3281 29.6042 48.4115 29.7344 48.5469 29.7344C48.6615 29.7344 48.7812 29.6562 48.9062 29.5C50.4271 27.5 52.2292 26.5 54.3125 26.5C55.0938 26.5 55.8229 26.6719 56.5 27.0156C57.1771 27.3594 57.7656 27.8281 58.2656 28.4219C58.7656 29.0156 59.1562 29.7188 59.4375 30.5312C59.7292 31.3438 59.875 32.2188 59.875 33.1562C59.875 34.0312 59.7344 34.8438 59.4531 35.5938C59.1823 36.3438 58.8021 36.9896 58.3125 37.5312C57.8229 38.0729 57.2396 38.5 56.5625 38.8125C55.8958 39.1146 55.1667 39.2656 54.375 39.2656C53.3958 39.2656 52.4375 39.0781 51.5 38.7031C50.5625 38.3177 49.6771 37.8021 48.8438 37.1562C48.75 37.0729 48.651 37.0312 48.5469 37.0312C48.4115 37.0312 48.2865 37.1042 48.1719 37.25C48.0052 37.4375 47.8281 37.5625 47.6406 37.625C47.4531 37.6771 47.224 37.7031 46.9531 37.7031C46.1302 37.7031 45.7031 37.2656 45.6719 36.3906ZM53.7656 29.4062C53.349 29.4062 52.9323 29.5052 52.5156 29.7031C52.1094 29.8906 51.724 30.1615 51.3594 30.5156C50.9948 30.8698 50.6562 31.2969 50.3438 31.7969C50.0417 32.2865 49.7865 32.8333 49.5781 33.4375C49.5573 33.4688 49.5417 33.5156 49.5312 33.5781C49.5208 33.6406 49.5156 33.6927 49.5156 33.7344C49.5156 33.9115 49.5781 34.0469 49.7031 34.1406C50.0781 34.4635 50.4635 34.7656 50.8594 35.0469C51.2656 35.3281 51.6667 35.5729 52.0625 35.7812C52.4583 35.9896 52.849 36.1562 53.2344 36.2812C53.6198 36.3958 53.9792 36.4531 54.3125 36.4531C55.0625 36.4531 55.6302 36.2344 56.0156 35.7969C56.4115 35.3594 56.6094 34.724 56.6094 33.8906C56.6094 33.2448 56.5365 32.651 56.3906 32.1094C56.2448 31.5573 56.0469 31.0833 55.7969 30.6875C55.5469 30.2812 55.2448 29.9688 54.8906 29.75C54.5469 29.5208 54.1719 29.4062 53.7656 29.4062ZM65.1406 27.3281C64.9948 27.5677 64.8385 27.75 64.6719 27.875C64.5052 28 64.3177 28.0625 64.1094 28.0625C64.0156 28.0625 63.901 28.0417 63.7656 28C63.6302 27.9583 63.4271 27.875 63.1562 27.75C62.6667 27.4792 62.4219 27.1354 62.4219 26.7188C62.4219 26.4792 62.4948 26.2448 62.6406 26.0156C62.9219 25.5781 63.25 25.1771 63.625 24.8125C64.0104 24.4375 64.4427 24.1146 64.9219 23.8438C65.4115 23.5729 65.9479 23.3594 66.5312 23.2031C67.125 23.0469 67.7708 22.9688 68.4688 22.9688C69.1875 22.9688 69.8698 23.0781 70.5156 23.2969C71.1615 23.5156 71.7292 23.8281 72.2188 24.2344C72.7083 24.6302 73.0938 25.1198 73.375 25.7031C73.6667 26.276 73.8125 26.9219 73.8125 27.6406C73.8125 28.5052 73.6406 29.349 73.2969 30.1719C72.9531 30.9844 72.5052 31.776 71.9531 32.5469C71.4115 33.3073 70.7969 34.0365 70.1094 34.7344C69.4219 35.4219 68.7344 36.0677 68.0469 36.6719C67.9323 36.7656 67.849 36.8594 67.7969 36.9531C67.7552 37.0469 67.7344 37.1354 67.7344 37.2188C67.7344 37.3333 67.7865 37.4323 67.8906 37.5156C68.0052 37.5885 68.1667 37.625 68.375 37.625C69.4167 37.6771 70.4479 37.75 71.4688 37.8438C72.4896 37.9271 73.5156 38.026 74.5469 38.1406C75.2448 38.2344 75.5938 38.5781 75.5938 39.1719C75.5938 39.2552 75.5885 39.3542 75.5781 39.4688C75.5677 39.5729 75.5208 39.7708 75.4375 40.0625C75.3542 40.4167 75.1927 40.6771 74.9531 40.8438C74.724 41.0104 74.4479 41.0938 74.125 41.0938C73.9167 41.0938 73.5885 41.0729 73.1406 41.0312C72.6927 41 72.1719 40.9583 71.5781 40.9062C70.9844 40.8542 70.3385 40.7917 69.6406 40.7188C68.9427 40.6562 68.2344 40.599 67.5156 40.5469C66.8073 40.4948 66.1094 40.4479 65.4219 40.4062C64.7344 40.375 64.1042 40.3594 63.5312 40.3594C63.3021 40.3594 63.1042 40.3073 62.9375 40.2031C62.7812 40.1094 62.651 39.9844 62.5469 39.8281C62.4531 39.6615 62.3854 39.4688 62.3438 39.25C62.3021 39.0312 62.2812 38.8021 62.2812 38.5625C62.2812 38.2708 62.3438 38.0208 62.4688 37.8125C62.6042 37.5938 62.7917 37.3958 63.0312 37.2188C63.5104 36.8646 64.026 36.474 64.5781 36.0469C65.1406 35.6198 65.7031 35.1667 66.2656 34.6875C66.8281 34.2083 67.3646 33.7083 67.875 33.1875C68.3958 32.6562 68.8542 32.1198 69.25 31.5781C69.6562 31.026 69.9792 30.474 70.2188 29.9219C70.4583 29.3594 70.5781 28.8021 70.5781 28.25C70.5781 27.875 70.5 27.5417 70.3438 27.25C70.1979 26.9479 69.9948 26.6927 69.7344 26.4844C69.4844 26.2656 69.1927 26.1042 68.8594 26C68.526 25.8854 68.1823 25.8281 67.8281 25.8281C67.1406 25.8281 66.5885 25.974 66.1719 26.2656C65.7552 26.5573 65.4115 26.9115 65.1406 27.3281Z" fill="white"/>
<path d="M180.516 20.1406C180.516 19.474 180.875 19.0677 181.594 18.9219L182.266 18.7969C182.339 18.776 182.401 18.7656 182.453 18.7656C182.516 18.7656 182.573 18.7656 182.625 18.7656C183.26 18.7656 183.635 19.1302 183.75 19.8594C183.792 20.2135 183.844 20.6615 183.906 21.2031C183.969 21.7448 184.047 22.3385 184.141 22.9844C184.245 23.6302 184.359 24.3073 184.484 25.0156C184.62 25.724 184.771 26.4219 184.938 27.1094C185.104 27.7865 185.292 28.4323 185.5 29.0469C185.708 29.6615 185.943 30.2031 186.203 30.6719C186.464 31.1406 186.745 31.5156 187.047 31.7969C187.359 32.0677 187.698 32.2031 188.062 32.2031C188.323 32.2031 188.583 32.125 188.844 31.9688C189.115 31.8125 189.38 31.6094 189.641 31.3594C189.901 31.099 190.151 30.8073 190.391 30.4844C190.63 30.1615 190.849 29.8333 191.047 29.5C191.245 29.1667 191.422 28.849 191.578 28.5469C191.745 28.2344 191.875 27.9635 191.969 27.7344C192.031 27.5365 192.062 27.3542 192.062 27.1875C192.062 27.1042 192.057 27.0208 192.047 26.9375C192.036 26.8542 192.021 26.7656 192 26.6719C191.802 26.026 191.651 25.3802 191.547 24.7344C191.443 24.0885 191.391 23.3906 191.391 22.6406C191.391 22.2031 191.427 21.7708 191.5 21.3438C191.573 20.9167 191.698 20.526 191.875 20.1719C191.969 19.9844 192.109 19.8229 192.297 19.6875C192.484 19.5521 192.688 19.4427 192.906 19.3594C193.135 19.276 193.37 19.2188 193.609 19.1875C193.859 19.1458 194.089 19.125 194.297 19.125C194.526 19.125 194.734 19.1719 194.922 19.2656C195.109 19.349 195.276 19.4948 195.422 19.7031C195.714 20.099 195.917 20.5521 196.031 21.0625C196.156 21.5729 196.219 22.0885 196.219 22.6094C196.219 23.1719 196.167 23.75 196.062 24.3438C195.958 24.9271 195.833 25.5104 195.688 26.0938C195.615 26.2396 195.578 26.401 195.578 26.5781C195.578 26.6615 195.589 26.75 195.609 26.8438C195.641 26.9375 195.677 27.0417 195.719 27.1562C195.906 27.6458 196.125 28.1458 196.375 28.6562C196.635 29.1562 196.932 29.6094 197.266 30.0156C197.599 30.4219 197.974 30.7552 198.391 31.0156C198.807 31.276 199.281 31.4062 199.812 31.4062C200.281 31.4062 200.703 31.2083 201.078 30.8125C201.453 30.4167 201.766 29.9167 202.016 29.3125C202.276 28.7083 202.474 28.0521 202.609 27.3438C202.745 26.625 202.812 25.9427 202.812 25.2969C202.812 24.6094 202.786 23.9323 202.734 23.2656C202.682 22.599 202.615 21.9844 202.531 21.4219C202.51 21.3698 202.5 21.3177 202.5 21.2656C202.5 21.2135 202.5 21.1615 202.5 21.1094C202.5 20.5156 202.818 20.1094 203.453 19.8906L204.156 19.6562C204.354 19.5938 204.536 19.5625 204.703 19.5625C205.255 19.5625 205.589 19.9062 205.703 20.5938C205.818 21.2396 205.906 21.8854 205.969 22.5312C206.042 23.1771 206.078 23.8229 206.078 24.4688C206.078 25.8438 205.917 27.1354 205.594 28.3438C205.271 29.5521 204.818 30.6094 204.234 31.5156C203.661 32.4115 202.979 33.1198 202.188 33.6406C201.396 34.1615 200.526 34.4219 199.578 34.4219C198.651 34.4219 197.719 34.1458 196.781 33.5938C195.844 33.0312 194.995 32.1406 194.234 30.9219C194.089 30.651 193.922 30.5156 193.734 30.5156C193.557 30.5156 193.396 30.651 193.25 30.9219C192.885 31.5677 192.484 32.1667 192.047 32.7188C191.609 33.2604 191.146 33.7292 190.656 34.125C190.167 34.5208 189.656 34.8281 189.125 35.0469C188.594 35.2656 188.057 35.375 187.516 35.375C186.641 35.375 185.87 35.1354 185.203 34.6562C184.547 34.1875 183.974 33.5573 183.484 32.7656C183.005 31.974 182.599 31.0677 182.266 30.0469C181.932 29.0156 181.651 27.9479 181.422 26.8438C181.203 25.7292 181.021 24.6146 180.875 23.5C180.74 22.3854 180.62 21.3438 180.516 20.375V20.1406ZM221.812 30.5781C222.115 30.3177 222.411 30.1875 222.703 30.1875C222.87 30.1875 223.021 30.2292 223.156 30.3125C223.292 30.3958 223.443 30.526 223.609 30.7031C223.766 30.9427 223.875 31.1406 223.938 31.2969C224.01 31.4427 224.047 31.5885 224.047 31.7344C224.047 32.0469 223.891 32.3438 223.578 32.625C223.078 33.0417 222.536 33.4167 221.953 33.75C221.37 34.0729 220.76 34.349 220.125 34.5781C219.49 34.8073 218.833 34.9792 218.156 35.0938C217.479 35.2188 216.807 35.2812 216.141 35.2812C215.297 35.2812 214.505 35.1719 213.766 34.9531C213.026 34.7448 212.365 34.4427 211.781 34.0469C211.208 33.651 210.724 33.1771 210.328 32.625C209.932 32.0625 209.651 31.4323 209.484 30.7344C209.391 30.4427 209.302 30.2552 209.219 30.1719C209.146 30.0781 209.021 30.0312 208.844 30.0312C208.458 30.0312 208.161 29.9375 207.953 29.75C207.745 29.5625 207.641 29.2917 207.641 28.9375C207.641 28.7917 207.651 28.6979 207.672 28.6562L207.703 28.3438C207.755 27.9688 207.854 27.6979 208 27.5312C208.156 27.3646 208.396 27.2812 208.719 27.2812H208.953C209.391 27.2812 209.698 27.0781 209.875 26.6719C210.198 25.9531 210.609 25.2969 211.109 24.7031C211.609 24.1094 212.172 23.6042 212.797 23.1875C213.422 22.7604 214.089 22.4323 214.797 22.2031C215.516 21.9635 216.245 21.8438 216.984 21.8438C217.755 21.8438 218.474 21.9583 219.141 22.1875C219.818 22.4062 220.406 22.7135 220.906 23.1094C221.406 23.5052 221.797 23.9688 222.078 24.5C222.37 25.0312 222.516 25.6042 222.516 26.2188C222.516 26.6458 222.432 27.0365 222.266 27.3906C222.099 27.7448 221.859 28.0573 221.547 28.3281C221.234 28.5885 220.854 28.8021 220.406 28.9688C219.969 29.1354 219.469 29.2448 218.906 29.2969L213.484 29.8438C213.276 29.8438 213.104 29.8958 212.969 30C212.844 30.1042 212.781 30.2448 212.781 30.4219C212.781 30.6927 212.88 30.9531 213.078 31.2031C213.286 31.4531 213.557 31.6771 213.891 31.875C214.234 32.0625 214.625 32.2135 215.062 32.3281C215.51 32.4427 215.969 32.5 216.438 32.5C216.885 32.5 217.344 32.4583 217.812 32.375C218.292 32.2812 218.76 32.151 219.219 31.9844C219.688 31.8177 220.141 31.6198 220.578 31.3906C221.016 31.151 221.427 30.8802 221.812 30.5781ZM218.328 26.5469C218.484 26.5156 218.62 26.4427 218.734 26.3281C218.849 26.2031 218.906 26.0521 218.906 25.875C218.906 25.7188 218.849 25.5729 218.734 25.4375C218.62 25.3021 218.464 25.1823 218.266 25.0781C218.068 24.9635 217.839 24.875 217.578 24.8125C217.318 24.75 217.042 24.7188 216.75 24.7188C216.323 24.7188 215.885 24.7812 215.438 24.9062C214.99 25.0312 214.583 25.1979 214.219 25.4062C213.854 25.6042 213.557 25.8281 213.328 26.0781C213.099 26.3177 212.984 26.5573 212.984 26.7969C212.984 27.0365 213.13 27.1562 213.422 27.1562C213.599 27.1562 213.885 27.1354 214.281 27.0938C214.677 27.0521 215.115 27.0052 215.594 26.9531C216.073 26.8906 216.557 26.8229 217.047 26.75C217.536 26.6771 217.964 26.6094 218.328 26.5469ZM225.672 30.3906C225.474 27.9531 225.245 25.5312 224.984 23.125C224.734 20.7188 224.365 18.3177 223.875 15.9219C223.854 15.8385 223.844 15.7656 223.844 15.7031C223.844 15.6302 223.844 15.5625 223.844 15.5C223.844 15.2604 223.891 15.0521 223.984 14.875C224.089 14.6979 224.224 14.5521 224.391 14.4375C224.557 14.3125 224.745 14.2188 224.953 14.1562C225.172 14.0938 225.401 14.0625 225.641 14.0625C226.276 14.0625 226.714 14.3594 226.953 14.9531C227.057 15.2552 227.161 15.6875 227.266 16.25C227.38 16.8125 227.495 17.4635 227.609 18.2031C227.734 18.9427 227.854 19.7552 227.969 20.6406C228.083 21.5156 228.193 22.4167 228.297 23.3438C228.328 23.6042 228.411 23.7344 228.547 23.7344C228.661 23.7344 228.781 23.6562 228.906 23.5C230.427 21.5 232.229 20.5 234.312 20.5C235.094 20.5 235.823 20.6719 236.5 21.0156C237.177 21.3594 237.766 21.8281 238.266 22.4219C238.766 23.0156 239.156 23.7188 239.438 24.5312C239.729 25.3438 239.875 26.2188 239.875 27.1562C239.875 28.0312 239.734 28.8438 239.453 29.5938C239.182 30.3438 238.802 30.9896 238.312 31.5312C237.823 32.0729 237.24 32.5 236.562 32.8125C235.896 33.1146 235.167 33.2656 234.375 33.2656C233.396 33.2656 232.438 33.0781 231.5 32.7031C230.562 32.3177 229.677 31.8021 228.844 31.1562C228.75 31.0729 228.651 31.0312 228.547 31.0312C228.411 31.0312 228.286 31.1042 228.172 31.25C228.005 31.4375 227.828 31.5625 227.641 31.625C227.453 31.6771 227.224 31.7031 226.953 31.7031C226.13 31.7031 225.703 31.2656 225.672 30.3906ZM233.766 23.4062C233.349 23.4062 232.932 23.5052 232.516 23.7031C232.109 23.8906 231.724 24.1615 231.359 24.5156C230.995 24.8698 230.656 25.2969 230.344 25.7969C230.042 26.2865 229.786 26.8333 229.578 27.4375C229.557 27.4688 229.542 27.5156 229.531 27.5781C229.521 27.6406 229.516 27.6927 229.516 27.7344C229.516 27.9115 229.578 28.0469 229.703 28.1406C230.078 28.4635 230.464 28.7656 230.859 29.0469C231.266 29.3281 231.667 29.5729 232.062 29.7812C232.458 29.9896 232.849 30.1562 233.234 30.2812C233.62 30.3958 233.979 30.4531 234.312 30.4531C235.062 30.4531 235.63 30.2344 236.016 29.7969C236.411 29.3594 236.609 28.724 236.609 27.8906C236.609 27.2448 236.536 26.651 236.391 26.1094C236.245 25.5573 236.047 25.0833 235.797 24.6875C235.547 24.2812 235.245 23.9688 234.891 23.75C234.547 23.5208 234.172 23.4062 233.766 23.4062ZM247.031 27.0312C246.958 27.0521 246.891 27.0677 246.828 27.0781C246.766 27.0885 246.703 27.0938 246.641 27.0938C246.318 27.0938 246.068 26.9948 245.891 26.7969C245.714 26.599 245.599 26.3229 245.547 25.9688L245.453 25.3281C245.453 25.276 245.448 25.2292 245.438 25.1875C245.427 25.1458 245.422 25.1094 245.422 25.0781C245.422 24.776 245.49 24.5365 245.625 24.3594C245.771 24.1719 245.953 24.0312 246.172 23.9375C246.401 23.8333 246.656 23.7656 246.938 23.7344C247.219 23.6927 247.505 23.6667 247.797 23.6562C248.422 23.6354 248.927 23.4635 249.312 23.1406C249.708 22.8073 249.906 22.2969 249.906 21.6094C249.906 21.224 249.802 20.901 249.594 20.6406C249.385 20.3698 249.12 20.151 248.797 19.9844C248.484 19.8177 248.135 19.6979 247.75 19.625C247.375 19.5417 247.016 19.5 246.672 19.5C245.964 19.5 245.323 19.625 244.75 19.875C244.177 20.1146 243.635 20.4271 243.125 20.8125C242.792 21.0521 242.5 21.1719 242.25 21.1719C242.073 21.1719 241.906 21.125 241.75 21.0312C241.594 20.9375 241.422 20.7708 241.234 20.5312C240.995 20.2083 240.833 19.9635 240.75 19.7969C240.667 19.6198 240.625 19.4583 240.625 19.3125C240.625 19.0833 240.719 18.8594 240.906 18.6406C241.104 18.4115 241.365 18.1979 241.688 18C242.021 17.8021 242.406 17.6198 242.844 17.4531C243.281 17.2865 243.74 17.1458 244.219 17.0312C244.708 16.9167 245.203 16.8281 245.703 16.7656C246.214 16.6927 246.708 16.6562 247.188 16.6562C248.073 16.6562 248.875 16.7656 249.594 16.9844C250.323 17.2031 250.943 17.5104 251.453 17.9062C251.964 18.3021 252.354 18.7812 252.625 19.3438C252.906 19.8958 253.047 20.5052 253.047 21.1719C253.047 21.5573 252.99 21.9375 252.875 22.3125C252.771 22.6875 252.594 23.0521 252.344 23.4062C252.188 23.6146 252.109 23.776 252.109 23.8906C252.109 24.0677 252.26 24.2292 252.562 24.375C253.135 24.6458 253.63 24.974 254.047 25.3594C254.464 25.7344 254.802 26.1562 255.062 26.625C255.333 27.0833 255.531 27.5781 255.656 28.1094C255.792 28.6302 255.859 29.1667 255.859 29.7188C255.859 30.5625 255.677 31.3125 255.312 31.9688C254.948 32.6146 254.464 33.1615 253.859 33.6094C253.255 34.0469 252.562 34.3802 251.781 34.6094C251.01 34.8385 250.214 34.9531 249.391 34.9531C248.661 34.9531 247.964 34.8594 247.297 34.6719C246.641 34.4948 246.042 34.2292 245.5 33.875C244.969 33.5104 244.51 33.0729 244.125 32.5625C243.74 32.0417 243.458 31.4427 243.281 30.7656C243.26 30.7031 243.245 30.6354 243.234 30.5625C243.224 30.4896 243.219 30.4219 243.219 30.3594C243.219 30.0677 243.323 29.8385 243.531 29.6719C243.74 29.5052 244.01 29.4219 244.344 29.4219L245.359 29.5156C245.745 29.5677 246.026 29.6927 246.203 29.8906C246.38 30.0781 246.547 30.349 246.703 30.7031C246.828 30.9948 247.005 31.2292 247.234 31.4062C247.464 31.5833 247.719 31.7188 248 31.8125C248.292 31.9062 248.594 31.9688 248.906 32C249.229 32.0312 249.542 32.0469 249.844 32.0469C250.26 32.0469 250.646 32.0052 251 31.9219C251.354 31.8385 251.656 31.7083 251.906 31.5312C252.167 31.3542 252.365 31.1198 252.5 30.8281C252.646 30.5365 252.719 30.1771 252.719 29.75C252.719 29.25 252.615 28.8021 252.406 28.4062C252.208 28.0104 251.948 27.6719 251.625 27.3906C251.302 27.1094 250.938 26.8958 250.531 26.75C250.125 26.5938 249.714 26.5156 249.297 26.5156C248.943 26.5156 248.573 26.5781 248.188 26.7031C247.802 26.8177 247.417 26.9271 247.031 27.0312Z" fill="white"/>
<path d="M166.341 15.1074C165.254 13.1621 164.167 11.2167 162.97 9.07408C164.879 8.79981 166.108 9.41373 166.763 10.3082C168.707 12.9635 170.62 15.6553 172.147 18.4938C173.022 20.12 171.644 21.3933 169.32 21.3723C165.441 21.3374 161.588 21.1441 157.725 21.0137C157.499 21.0061 157.202 21.0269 157.073 20.9271C156.66 20.6074 156.311 20.2372 155.938 19.8865C156.366 19.6048 156.783 19.1318 157.224 19.0763C158.711 18.8891 160.207 18.8488 161.699 18.7552C162.481 18.7061 163.263 18.663 164.326 18.1819C163.387 17.698 162.477 17.1782 161.504 16.7354C141.718 7.73488 115.826 10.7382 96.8491 24.278C94.4232 26.0089 92.2367 27.9516 89.9265 29.7863C89.1217 30.4256 88.2786 31.0352 87.453 31.6584C87.2328 31.5737 87.0126 31.489 86.7923 31.4043C86.9175 30.8579 86.8357 30.213 87.2053 29.7828C88.4892 28.2888 89.8118 26.7909 91.3288 25.4337C106.69 11.6894 131.021 5.7434 152.027 10.7168C156.032 11.6652 159.728 13.2178 163.553 14.513C164.34 14.7795 165.063 15.1417 165.816 15.4597C165.991 15.3423 166.166 15.2249 166.341 15.1074Z" fill="white"/>
</svg>
