<svg width="151" height="38" viewBox="0 0 151 38" fill="none" xmlns="http://www.w3.org/2000/svg">
<path fill-rule="evenodd" clip-rule="evenodd" d="M11.9222 6.35789L4.77002 18.6597L11.9222 30.9616H26.2264L33.3789 18.6597L26.2264 6.35789H11.9222Z" fill="#8CC63F"/>
<path fill-rule="evenodd" clip-rule="evenodd" d="M11.9224 30.9616H26.1316L19.0228 18.6598L11.9224 30.9616Z" fill="#EC27B6"/>
<path fill-rule="evenodd" clip-rule="evenodd" d="M4.76855 18.6598L11.9225 30.9616L19.0267 18.6598H4.76855Z" fill="#B21888"/>
<path fill-rule="evenodd" clip-rule="evenodd" d="M11.9213 6.35789L4.76904 18.6597H19.022L19.0249 18.654L26.1313 6.35789H11.9213Z" fill="#F65CCC"/>
<path fill-rule="evenodd" clip-rule="evenodd" d="M26.1773 6.35789L19.0737 18.6597L26.1773 30.9616L33.3321 18.6597L26.1773 6.35789Z" fill="#FC94E0"/>
<path d="M41.4567 21.3501C41.9451 21.5901 42.4667 21.7661 43.0213 21.8778C43.5801 21.9854 44.1244 22.0392 44.6543 22.0392C45.1261 22.0392 45.5338 22.002 45.8774 21.9275C46.221 21.8488 46.5045 21.7433 46.728 21.6108C46.9515 21.4784 47.1171 21.3211 47.2247 21.139C47.3323 20.9568 47.3862 20.7602 47.3862 20.5491C47.3862 20.2635 47.2889 20.0089 47.0943 19.7854C46.8998 19.5578 46.6038 19.388 46.2065 19.2763C45.8132 19.1604 45.3145 19.1149 44.7101 19.1397C44.1099 19.1645 43.4021 19.2825 42.5867 19.4936L42.5929 18.0407L46.2189 15.6813H41.0841V13.9553H48.8515V15.6441L45.6601 17.6682C46.2437 17.6682 46.7653 17.7427 47.2247 17.8917C47.6842 18.0407 48.0712 18.2456 48.3858 18.5064C48.7004 18.7672 48.9404 19.0755 49.106 19.4315C49.2716 19.7875 49.3544 20.1704 49.3544 20.5802C49.3544 21.0644 49.2468 21.5053 49.0315 21.9026C48.8204 22.2959 48.512 22.6332 48.1064 22.9147C47.7007 23.192 47.204 23.4073 46.6163 23.5604C46.0326 23.7136 45.3703 23.7901 44.6294 23.7901C43.843 23.7901 43.1165 23.7074 42.4501 23.5418C41.7837 23.3721 41.1504 23.1382 40.5502 22.8402L41.4567 21.3501ZM51.2046 18.0345H56.8982V19.4129H51.2046V18.0345ZM62.0577 15.6813H58.4752V13.9553H67.6085V15.6813H64.026V23.6598H62.0577V15.6813ZM69.4836 16.3333H71.3214V17.3888C71.727 17.0866 72.1555 16.8259 72.6066 16.6065C73.0578 16.3871 73.5069 16.2194 73.954 16.1036L74.4941 17.7862C73.7863 17.8565 73.1634 18.0159 72.6253 18.2642C72.0913 18.5085 71.6567 18.8541 71.3214 19.3011V23.6598H69.4836V16.3333ZM75.5186 21.3501C75.5186 20.9982 75.5952 20.6774 75.7483 20.3877C75.9015 20.0979 76.1312 19.8496 76.4375 19.6426C76.7438 19.4315 77.1246 19.2701 77.5799 19.1583C78.0394 19.0424 78.5734 18.9845 79.1818 18.9845C79.633 18.9845 80.107 19.0176 80.6037 19.0838C81.1045 19.15 81.6199 19.2515 82.1497 19.388C82.129 19.1563 82.0586 18.9431 81.9386 18.7485C81.8185 18.5498 81.6509 18.3801 81.4357 18.2394C81.2246 18.0945 80.9679 17.9828 80.6658 17.9041C80.3677 17.8255 80.0283 17.7862 79.6475 17.7862C79.4405 17.7862 79.2129 17.7986 78.9645 17.8234C78.7162 17.8482 78.4595 17.8855 78.1946 17.9352C77.9297 17.9848 77.6669 18.0469 77.4061 18.1214C77.1495 18.1959 76.9094 18.2849 76.6859 18.3884L76.1271 16.8797C76.4044 16.7803 76.7004 16.6893 77.0149 16.6065C77.3337 16.5237 77.6586 16.4533 77.9897 16.3954C78.3209 16.3333 78.652 16.2857 78.9832 16.2526C79.3143 16.2194 79.6351 16.2029 79.9455 16.2029C81.3156 16.2029 82.3339 16.5527 83.0003 17.2522C83.6667 17.9517 83.9999 19.0238 83.9999 20.4684V23.6598H82.1621V22.9706C81.9717 23.0823 81.7627 23.1879 81.535 23.2872C81.3115 23.3866 81.0673 23.4735 80.8024 23.548C80.5374 23.6225 80.2518 23.6805 79.9455 23.7218C79.6434 23.7674 79.3226 23.7901 78.9832 23.7901C78.4119 23.7901 77.909 23.7281 77.4744 23.6039C77.0439 23.4797 76.6838 23.3079 76.3941 23.0885C76.1043 22.8692 75.8849 22.6125 75.7359 22.3186C75.591 22.0206 75.5186 21.6978 75.5186 21.3501ZM77.4558 21.288C77.4558 21.408 77.4868 21.5239 77.5489 21.6357C77.611 21.7433 77.7103 21.8406 77.8469 21.9275C77.9835 22.0103 78.1574 22.0786 78.3685 22.1324C78.5837 22.182 78.8424 22.2069 79.1446 22.2069C79.4674 22.2069 79.78 22.1779 80.0821 22.12C80.3843 22.062 80.6658 21.9854 80.9265 21.8902C81.1873 21.795 81.4232 21.6853 81.6343 21.5612C81.8455 21.437 82.0214 21.3087 82.1621 21.1762V20.8533C81.8806 20.7747 81.6012 20.7085 81.3239 20.6547C81.0507 20.6009 80.7879 20.5595 80.5354 20.5305C80.287 20.4974 80.0511 20.4746 79.8276 20.4622C79.6082 20.4498 79.4157 20.4436 79.2501 20.4436C78.9066 20.4436 78.621 20.4663 78.3933 20.5119C78.1657 20.5574 77.9815 20.6195 77.8407 20.6981C77.7 20.7726 77.6006 20.8616 77.5427 20.9651C77.4847 21.0686 77.4558 21.1762 77.4558 21.288ZM86.4338 16.3333H88.2716V16.9542C88.7601 16.6768 89.2257 16.4823 89.6686 16.3705C90.1157 16.2588 90.5524 16.2029 90.9787 16.2029C91.5375 16.2029 92.0549 16.2857 92.5309 16.4512C93.007 16.6127 93.4188 16.8548 93.7665 17.1777C94.1142 17.5005 94.3853 17.9041 94.5799 18.3884C94.7786 18.8686 94.8779 19.4253 94.8779 20.0586V23.6598H93.0463V20.3566C93.0463 19.9551 92.9883 19.5971 92.8724 19.2825C92.7607 18.9638 92.5972 18.6968 92.3819 18.4816C92.1708 18.2622 91.9121 18.0966 91.6058 17.9848C91.3036 17.8689 90.9642 17.811 90.5876 17.811C90.3889 17.811 90.184 17.8317 89.9729 17.8731C89.7659 17.9145 89.561 17.9745 89.3582 18.0531C89.1595 18.1276 88.967 18.2228 88.7808 18.3387C88.5945 18.4505 88.4248 18.5788 88.2716 18.7237V23.6598H86.4338V16.3333ZM97.4297 21.4121C97.9265 21.7102 98.4728 21.9296 99.0689 22.0703C99.6649 22.211 100.275 22.2814 100.901 22.2814C101.323 22.2814 101.675 22.2524 101.956 22.1945C102.237 22.1365 102.463 22.062 102.633 21.9709C102.802 21.8799 102.923 21.7764 102.993 21.6605C103.063 21.5446 103.098 21.4266 103.098 21.3066C103.098 21.1327 103.022 20.9837 102.869 20.8596C102.72 20.7354 102.471 20.6733 102.124 20.6733C101.962 20.6733 101.788 20.6836 101.602 20.7043C101.416 20.725 101.219 20.7478 101.012 20.7726C100.809 20.7933 100.596 20.814 100.373 20.8347C100.153 20.8554 99.9299 20.8658 99.7022 20.8658C99.2055 20.8658 98.7812 20.812 98.4294 20.7043C98.0817 20.5967 97.7981 20.4498 97.5788 20.2635C97.3594 20.0772 97.2 19.8579 97.1007 19.6054C97.0013 19.3487 96.9517 19.0735 96.9517 18.7796C96.9517 18.407 97.0386 18.0635 97.2124 17.7489C97.3863 17.4343 97.6346 17.1632 97.9575 16.9355C98.2804 16.7037 98.6695 16.5237 99.1248 16.3954C99.5842 16.2671 100.095 16.2029 100.658 16.2029C100.952 16.2029 101.259 16.2215 101.577 16.2588C101.9 16.2919 102.217 16.3374 102.527 16.3954C102.838 16.4533 103.136 16.5216 103.421 16.6003C103.707 16.6748 103.959 16.7555 104.179 16.8424L103.601 18.2705C103.134 18.0966 102.666 17.96 102.198 17.8607C101.735 17.7572 101.256 17.7054 100.764 17.7054C100.42 17.7054 100.129 17.7323 99.8885 17.7862C99.6525 17.8358 99.46 17.9041 99.311 17.9911C99.162 18.0738 99.0523 18.1711 98.982 18.2829C98.9157 18.3905 98.8826 18.5043 98.8826 18.6244C98.8826 18.7113 98.8992 18.7899 98.9323 18.8603C98.9695 18.9307 99.0275 18.9928 99.1061 19.0466C99.1889 19.0962 99.2945 19.1356 99.4228 19.1645C99.5553 19.1894 99.7167 19.2018 99.9071 19.2018C100.081 19.2018 100.265 19.1914 100.46 19.1707C100.654 19.15 100.857 19.1293 101.068 19.1086C101.279 19.0838 101.497 19.061 101.72 19.0404C101.948 19.0197 102.18 19.0093 102.415 19.0093C102.854 19.0093 103.237 19.061 103.564 19.1645C103.895 19.268 104.168 19.4129 104.384 19.5992C104.599 19.7854 104.76 20.0048 104.868 20.2573C104.976 20.5098 105.029 20.785 105.029 21.0831C105.029 21.468 104.94 21.8261 104.762 22.1572C104.584 22.4884 104.32 22.776 103.968 23.0202C103.616 23.2603 103.177 23.4487 102.651 23.5853C102.13 23.7218 101.526 23.7901 100.838 23.7901C100.416 23.7901 100.009 23.7632 99.6153 23.7094C99.222 23.6598 98.8474 23.5915 98.4915 23.5045C98.1355 23.4135 97.8002 23.3079 97.4856 23.1879C97.1752 23.0678 96.8916 22.9395 96.635 22.8029L97.4297 21.4121ZM107.488 17.7117H106.234V16.3333H107.488C107.488 15.8366 107.558 15.3957 107.699 15.0108C107.84 14.6217 108.043 14.2947 108.308 14.0298C108.577 13.7607 108.902 13.5558 109.282 13.4151C109.667 13.2744 110.1 13.204 110.58 13.204C110.915 13.204 111.245 13.2371 111.567 13.3033C111.89 13.3654 112.176 13.4565 112.424 13.5765L111.772 15.1225C111.673 15.0646 111.532 15.0108 111.35 14.9611C111.172 14.9114 110.975 14.8866 110.76 14.8866C110.338 14.8866 109.997 15.0066 109.736 15.2467C109.479 15.4827 109.343 15.8448 109.326 16.3333H111.642V17.7117H109.326V23.6598H107.488V17.7117ZM112.617 19.9965C112.617 19.4708 112.722 18.9783 112.933 18.5188C113.149 18.0593 113.453 17.6578 113.846 17.3143C114.243 16.9707 114.721 16.6996 115.28 16.5009C115.843 16.3022 116.474 16.2029 117.174 16.2029C117.874 16.2029 118.503 16.3022 119.061 16.5009C119.624 16.6996 120.103 16.9707 120.496 17.3143C120.893 17.6578 121.197 18.0593 121.408 18.5188C121.624 18.9783 121.731 19.4708 121.731 19.9965C121.731 20.5222 121.624 21.0148 121.408 21.4742C121.197 21.9337 120.893 22.3352 120.496 22.6788C120.103 23.0223 119.624 23.2934 119.061 23.4921C118.503 23.6908 117.874 23.7901 117.174 23.7901C116.474 23.7901 115.843 23.6908 115.28 23.4921C114.721 23.2934 114.243 23.0223 113.846 22.6788C113.453 22.3352 113.149 21.9337 112.933 21.4742C112.722 21.0148 112.617 20.5222 112.617 19.9965ZM114.548 19.9965C114.548 20.2904 114.606 20.5698 114.721 20.8347C114.842 21.0955 115.013 21.3273 115.237 21.5301C115.464 21.7288 115.74 21.8882 116.063 22.0082C116.39 22.1241 116.76 22.182 117.174 22.182C117.588 22.182 117.956 22.1241 118.279 22.0082C118.606 21.8882 118.881 21.7288 119.105 21.5301C119.333 21.3273 119.504 21.0955 119.62 20.8347C119.74 20.5698 119.8 20.2904 119.8 19.9965C119.8 19.7026 119.74 19.4232 119.62 19.1583C119.504 18.8934 119.333 18.6616 119.105 18.4629C118.881 18.2601 118.606 18.1007 118.279 17.9848C117.956 17.8648 117.588 17.8048 117.174 17.8048C116.76 17.8048 116.39 17.8648 116.063 17.9848C115.74 18.1007 115.464 18.2601 115.237 18.4629C115.013 18.6616 114.842 18.8934 114.721 19.1583C114.606 19.4232 114.548 19.7026 114.548 19.9965ZM123.588 16.3333H125.426V17.3888C125.831 17.0866 126.26 16.8259 126.711 16.6065C127.162 16.3871 127.611 16.2194 128.058 16.1036L128.598 17.7862C127.891 17.8565 127.268 18.0159 126.729 18.2642C126.195 18.5085 125.761 18.8541 125.426 19.3011V23.6598H123.588V16.3333ZM130.02 16.3333H131.858V16.9542C132.317 16.6727 132.764 16.4782 133.199 16.3705C133.638 16.2588 134.066 16.2029 134.484 16.2029C135.068 16.2029 135.604 16.296 136.092 16.4823C136.581 16.6686 136.999 16.95 137.347 17.3267C137.616 17.1197 137.881 16.9459 138.141 16.8052C138.402 16.6603 138.663 16.5444 138.924 16.4575C139.184 16.3664 139.449 16.3022 139.718 16.265C139.987 16.2236 140.265 16.2029 140.55 16.2029C141.151 16.2029 141.695 16.2857 142.183 16.4512C142.672 16.6127 143.088 16.8548 143.431 17.1777C143.779 17.5005 144.046 17.9041 144.232 18.3884C144.423 18.8686 144.518 19.4253 144.518 20.0586V23.6598H142.686V20.3566C142.686 19.9551 142.628 19.5971 142.512 19.2825C142.401 18.9638 142.241 18.6968 142.034 18.4816C141.832 18.2622 141.587 18.0966 141.302 17.9848C141.02 17.8689 140.71 17.811 140.37 17.811C140.184 17.811 139.994 17.8296 139.799 17.8669C139.605 17.9 139.414 17.9538 139.228 18.0283C139.046 18.1028 138.874 18.198 138.713 18.3139C138.551 18.4257 138.41 18.5581 138.29 18.7113V23.6598H136.459V20.3566C136.459 19.9551 136.401 19.5971 136.285 19.2825C136.173 18.9638 136.014 18.6968 135.807 18.4816C135.604 18.2622 135.358 18.0966 135.068 17.9848C134.782 17.8689 134.468 17.811 134.124 17.811C133.913 17.811 133.7 17.8338 133.485 17.8793C133.274 17.9207 133.069 17.9807 132.87 18.0593C132.675 18.138 132.491 18.2332 132.317 18.345C132.148 18.4567 131.995 18.583 131.858 18.7237V23.6598H130.02V16.3333Z" fill="#EEEEF0"/>
</svg>
